<svg width="19" height="19" viewBox="0 0 19 19" fill="none" xmlns="http://www.w3.org/2000/svg">
<path d="M17.8925 2.94947C17.5023 2.9139 17.1572 3.20137 17.1216 3.59153L17.0276 4.62258C15.433 2.11826 12.6648 0.444336 9.45741 0.444336C6.00696 0.444336 2.96617 2.41364 1.45668 5.36934C1.27848 5.71825 1.41688 6.14554 1.76579 6.32374C2.11477 6.50194 2.54199 6.36357 2.72019 6.01463C3.99767 3.51322 6.56304 1.86309 9.45741 1.86309C12.0955 1.86309 14.4762 3.23684 15.8402 5.38899L14.8287 4.6666C14.5099 4.43892 14.0668 4.51277 13.8391 4.83156C13.6115 5.15039 13.6853 5.5934 14.0041 5.82111L17.0713 8.01171C17.5208 8.33217 18.1408 8.03881 18.19 7.49886L18.5344 3.72035C18.5701 3.33016 18.2826 2.98505 17.8925 2.94947Z" fill="#C7C7C7"/>
<path d="M17.1505 12.7296C16.8016 12.5515 16.3743 12.6898 16.1961 13.0387C14.9187 15.5402 12.3533 17.1903 9.45892 17.1903C6.82084 17.1903 4.4401 15.8165 3.07617 13.6644L4.08764 14.3868C4.40647 14.6145 4.84948 14.5406 5.07719 14.2218C5.30487 13.903 5.23102 13.46 4.91222 13.2323L1.84505 11.0417C1.40101 10.7244 0.775978 11.009 0.726321 11.5545L0.381882 15.333C0.346307 15.7232 0.633783 16.0683 1.02391 16.1039C1.41456 16.1394 1.75921 15.8516 1.79475 15.4618L1.88875 14.4308C3.48336 16.9351 6.2515 18.609 9.45892 18.609C12.9094 18.609 15.9502 16.6397 17.4597 13.684C17.6378 13.3351 17.4994 12.9078 17.1505 12.7296Z" fill="#C7C7C7"/>
</svg>
