<svg width="23" height="18" viewBox="0 0 23 18" fill="none" xmlns="http://www.w3.org/2000/svg">
<path d="M20.2306 0.226562H2.09745C1.7998 0.226562 1.52115 0.300791 1.26904 0.42314L11.1211 10.4167L13.3292 8.2641C13.3292 8.2641 13.3294 8.26388 13.3294 8.26379C13.3295 8.26371 13.3297 8.26362 13.3297 8.26362L21.0593 0.423314C20.8072 0.300878 20.5283 0.226562 20.2306 0.226562Z" fill="url(#paint0_linear)"/>
<path d="M21.9713 1.3457L14.6973 8.72386L21.971 16.1021C22.0916 15.8464 22.1648 15.5638 22.1648 15.2618V2.18571C22.1648 1.88396 22.0918 1.60134 21.9713 1.3457Z" fill="url(#paint1_linear)"/>
<path d="M0.357855 1.3457C0.23724 1.60143 0.164062 1.88409 0.164062 2.18602V15.2621C0.164062 15.5639 0.237154 15.8466 0.357683 16.1022L7.6317 8.72407L0.357855 1.3457Z" fill="url(#paint2_linear)"/>
<path d="M13.7856 9.65145L11.5771 11.8043C11.4512 11.9321 11.2863 11.9959 11.1214 11.9959C10.9565 11.9959 10.7916 11.9321 10.6657 11.8043L8.54319 9.65137L1.26904 17.0296C1.52119 17.152 1.80002 17.2263 2.09775 17.2263H20.2309C20.5286 17.2263 20.8072 17.1521 21.0593 17.0297L13.7856 9.65145Z" fill="url(#paint3_linear)"/>
<defs>
<linearGradient id="paint0_linear" x1="11.1642" y1="0.226562" x2="11.1642" y2="10.4167" gradientUnits="userSpaceOnUse">
<stop stop-color="#FC8131"/>
<stop offset="1" stop-color="#FE9544"/>
</linearGradient>
<linearGradient id="paint1_linear" x1="18.431" y1="1.3457" x2="18.431" y2="16.1021" gradientUnits="userSpaceOnUse">
<stop stop-color="#FC8131"/>
<stop offset="1" stop-color="#FE9544"/>
</linearGradient>
<linearGradient id="paint2_linear" x1="3.89788" y1="1.3457" x2="3.89788" y2="16.1022" gradientUnits="userSpaceOnUse">
<stop stop-color="#FC8131"/>
<stop offset="1" stop-color="#FE9544"/>
</linearGradient>
<linearGradient id="paint3_linear" x1="11.1642" y1="9.65137" x2="11.1642" y2="17.2263" gradientUnits="userSpaceOnUse">
<stop stop-color="#FC8131"/>
<stop offset="1" stop-color="#FE9544"/>
</linearGradient>
</defs>
</svg>
