<svg width="98" height="54" viewBox="0 0 98 54" fill="none" xmlns="http://www.w3.org/2000/svg">
<path d="M91.2659 8.74074C86.7924 3.67099 80.4839 0.878906 73.5019 0.878906C64.8925 0.878906 58.4117 5.84154 53.8705 11.347C55.5961 13.9986 56.9405 16.5369 57.9208 18.5966C61.4091 13.5687 66.6329 8.48885 73.5019 8.48885C83.1968 8.48885 90.2333 16.3299 90.2333 27.1332C90.2333 37.9365 83.1968 45.7776 73.5019 45.7776C59.6424 45.7776 52.8366 26.1184 52.7714 25.9253L52.7525 25.8707C52.3939 24.8502 43.7508 0.878906 24.8288 0.878906C17.8468 0.878906 11.5383 3.67099 7.06478 8.74074C2.82641 13.5441 0.492188 20.0761 0.492188 27.1332C0.492188 34.1903 2.82641 40.7223 7.06478 45.5257C11.5383 50.5954 17.8468 53.3875 24.8288 53.3875C33.5089 53.3875 39.9566 48.5495 44.4585 43.1234C42.7371 40.4723 41.4041 37.931 40.4257 35.838C36.9836 40.8062 31.7983 45.7776 24.8288 45.7776C15.1339 45.7776 8.09737 37.9365 8.09737 27.1332C8.09737 16.3299 15.1339 8.48885 24.8288 8.48885C38.205 8.48885 45.3453 27.7544 45.573 28.3814C46.0782 29.8715 54.3662 53.3875 73.5019 53.3875C80.4839 53.3875 86.7924 50.5954 91.2659 45.5257C95.5043 40.7223 97.8385 34.1903 97.8385 27.1332C97.8385 20.0761 95.5043 13.5441 91.2659 8.74074Z" fill="#FC8131"/>
</svg>
