<svg width="25" height="21" viewBox="0 0 25 21" fill="none" xmlns="http://www.w3.org/2000/svg">
<path d="M20.5653 3.26115C18.5232 1.42193 16.5815 0.853516 16.5815 0.853516L12.6646 14.1791H12.6311L8.68071 0.853516C8.68071 0.853516 6.73898 1.40525 4.69684 3.26115C2.52077 5.23401 0.646033 8.2603 0.964063 13.0588C1.21516 16.8541 4.0273 20.0811 4.0273 20.0811L9.46748 20.0643C9.46748 20.0643 4.7973 17.5898 3.6758 13.6942C2.33667 9.09626 4.42904 5.90277 6.03598 4.3813C6.68881 3.81281 7.64291 3.67904 7.99441 4.8996C9.19962 8.79529 12.6478 19.9473 12.6478 19.9473L12.6646 19.9473C12.6646 19.9473 16.0961 8.79534 17.318 4.89966C17.6863 3.6791 18.6404 3.81288 19.2764 4.38135C20.8834 5.90284 22.9757 9.09626 21.6366 13.6942C20.5151 17.5899 15.8449 20.0644 15.8449 20.0644L21.2851 20.0811C21.2851 20.0811 24.114 16.8375 24.3483 13.0589C24.6329 8.2603 22.7581 5.23401 20.5653 3.26115Z" fill="#204982"/>
</svg>
