<?xml version="1.0" encoding="utf-8"?>
<!-- Generator: Adobe Illustrator 22.1.0, SVG Export Plug-In . SVG Version: 6.00 Build 0)  -->
<svg version="1.1" id="Layer_1" xmlns="http://www.w3.org/2000/svg" xmlns:xlink="http://www.w3.org/1999/xlink" x="0px" y="0px"
	 viewBox="0 0 7115.4 2092.5" style="enable-background:new 0 0 7115.4 2092.5;" xml:space="preserve">
<style type="text/css">
	.st0{fill-rule:evenodd;clip-rule:evenodd;fill:url(#SVGID_1_);}
	.st1{fill-rule:evenodd;clip-rule:evenodd;fill:url(#SVGID_2_);}
	.st2{fill-rule:evenodd;clip-rule:evenodd;fill:url(#SVGID_3_);}
	.st3{fill-rule:evenodd;clip-rule:evenodd;fill:url(#SVGID_4_);}
	.st4{fill-rule:evenodd;clip-rule:evenodd;fill:url(#SVGID_5_);}
	.st5{fill-rule:evenodd;clip-rule:evenodd;fill:url(#SVGID_6_);}
	.st6{fill-rule:evenodd;clip-rule:evenodd;fill:url(#SVGID_7_);}
	.st7{fill-rule:evenodd;clip-rule:evenodd;fill:url(#SVGID_8_);}
	.st8{fill-rule:evenodd;clip-rule:evenodd;fill:url(#SVGID_9_);}
	.st9{fill-rule:evenodd;clip-rule:evenodd;fill:url(#SVGID_10_);}
	.st10{filter:url(#Adobe_OpacityMaskFilter);}
	.st11{fill-rule:evenodd;clip-rule:evenodd;fill:url(#SVGID_12_);}
	.st12{mask:url(#SVGID_11_);fill-rule:evenodd;clip-rule:evenodd;fill:#F7BAD5;}
	.st13{fill-rule:evenodd;clip-rule:evenodd;fill:url(#SVGID_13_);}
	.st14{filter:url(#Adobe_OpacityMaskFilter_1_);}
	.st15{fill-rule:evenodd;clip-rule:evenodd;fill:url(#SVGID_15_);}
	.st16{mask:url(#SVGID_14_);fill-rule:evenodd;clip-rule:evenodd;fill:#F7BAD5;}
	.st17{fill-rule:evenodd;clip-rule:evenodd;fill:url(#SVGID_16_);}
	.st18{filter:url(#Adobe_OpacityMaskFilter_2_);}
	.st19{fill-rule:evenodd;clip-rule:evenodd;fill:url(#SVGID_18_);}
	.st20{mask:url(#SVGID_17_);fill-rule:evenodd;clip-rule:evenodd;fill:#F7BAD5;}
	.st21{fill-rule:evenodd;clip-rule:evenodd;fill:url(#SVGID_19_);}
	.st22{filter:url(#Adobe_OpacityMaskFilter_3_);}
	.st23{fill-rule:evenodd;clip-rule:evenodd;fill:url(#SVGID_21_);}
	.st24{mask:url(#SVGID_20_);fill-rule:evenodd;clip-rule:evenodd;fill:#F7BAD5;}
	.st25{fill-rule:evenodd;clip-rule:evenodd;fill:url(#SVGID_22_);}
	.st26{filter:url(#Adobe_OpacityMaskFilter_4_);}
	.st27{fill-rule:evenodd;clip-rule:evenodd;fill:url(#SVGID_24_);}
	.st28{mask:url(#SVGID_23_);fill-rule:evenodd;clip-rule:evenodd;fill:#F7BAD5;}
	.st29{fill-rule:evenodd;clip-rule:evenodd;fill:url(#SVGID_25_);}
	.st30{filter:url(#Adobe_OpacityMaskFilter_5_);}
	.st31{fill-rule:evenodd;clip-rule:evenodd;fill:url(#SVGID_27_);}
	.st32{mask:url(#SVGID_26_);fill-rule:evenodd;clip-rule:evenodd;fill:#F7BAD5;}
	.st33{fill-rule:evenodd;clip-rule:evenodd;fill:url(#SVGID_28_);}
	.st34{filter:url(#Adobe_OpacityMaskFilter_6_);}
	.st35{fill-rule:evenodd;clip-rule:evenodd;fill:url(#SVGID_30_);}
	.st36{mask:url(#SVGID_29_);fill-rule:evenodd;clip-rule:evenodd;fill:#F7BAD5;}
	.st37{fill-rule:evenodd;clip-rule:evenodd;fill:url(#SVGID_31_);}
	.st38{filter:url(#Adobe_OpacityMaskFilter_7_);}
	.st39{fill-rule:evenodd;clip-rule:evenodd;fill:url(#SVGID_33_);}
	.st40{mask:url(#SVGID_32_);fill-rule:evenodd;clip-rule:evenodd;fill:#F7BAD5;}
	.st41{fill-rule:evenodd;clip-rule:evenodd;fill:url(#SVGID_34_);}
	.st42{filter:url(#Adobe_OpacityMaskFilter_8_);}
	.st43{fill-rule:evenodd;clip-rule:evenodd;fill:url(#SVGID_36_);}
	.st44{mask:url(#SVGID_35_);fill-rule:evenodd;clip-rule:evenodd;fill:#F7BAD5;}
	.st45{fill-rule:evenodd;clip-rule:evenodd;fill:url(#SVGID_37_);}
	.st46{fill-rule:evenodd;clip-rule:evenodd;fill:url(#SVGID_38_);}
	.st47{filter:url(#Adobe_OpacityMaskFilter_9_);}
	.st48{fill-rule:evenodd;clip-rule:evenodd;fill:url(#SVGID_40_);}
	.st49{mask:url(#SVGID_39_);fill-rule:evenodd;clip-rule:evenodd;fill:#FFFFFF;}
</style>
<g>
	<g>
		<linearGradient id="SVGID_1_" gradientUnits="userSpaceOnUse" x1="1121.5958" y1="1362.6019" x2="1121.5958" y2="1998.6566">
			<stop  offset="0" style="stop-color:#EC1C24"/>
			<stop  offset="1" style="stop-color:#900D10"/>
		</linearGradient>
		<path class="st0" d="M883,1801.9c1.2-23,9.4-53.8,19.3-88.3c7.7-26.6,15.4-55.3,25-84.1c23.6-71,49.6-143.2,67.4-191.7
			c10-27.5,13.4-45.9,44.4-60.8c52.6-25.5,136.2-15.3,179.5,15.5c4.4,3.2,8.2,6.8,11.3,10.6c19.1,23.4,29.8,60.1,40.5,87.7
			l82.9,211.9c28.6,78.2-33.9,177.6-114.3,240.4c-56.2,43.8-79.5,57.9-119.2,55c-82.6-6-194.4-92.5-229.4-163.2
			C884.6,1823.6,882.3,1814.4,883,1801.9z"/>
		<linearGradient id="SVGID_2_" gradientUnits="userSpaceOnUse" x1="1340.4293" y1="1282.8904" x2="1749.0132" y2="1769.8217">
			<stop  offset="0" style="stop-color:#EC1C24"/>
			<stop  offset="1" style="stop-color:#900D10"/>
		</linearGradient>
		<path class="st1" d="M1439.8,1772.8c-13.8-18.4-27.4-47.3-41.8-80.1c-11.2-25.3-23.7-52.3-34.9-80.4
			c-27.3-69.7-53.8-141.7-71.4-190.4c-9.9-27.4-19.1-43.8-5-75.2c24-53.3,94.6-99.4,147.6-103.6c5.4-0.4,10.6,0,15.4,1
			c29.6,5.6,61.4,26.9,87.4,41.1l199.4,109c72.1,41.5,88.1,157.9,66.8,257.8c-14.9,69.9-23.9,95.6-56,118.8
			c-67.2,48.6-208.3,54.3-280.5,22.7C1455,1788.5,1447.4,1782.9,1439.8,1772.8z"/>
		<linearGradient id="SVGID_3_" gradientUnits="userSpaceOnUse" x1="1457.3046" y1="1080.4946" x2="2082.7139" y2="1190.7712">
			<stop  offset="0" style="stop-color:#EC1C24"/>
			<stop  offset="1" style="stop-color:#900D10"/>
		</linearGradient>
		<path class="st2" d="M1847.8,1392.1c-22.4-5.2-51.3-18.7-83.4-34.5c-24.8-12.2-51.8-24.7-78.3-39.2
			c-65.7-35.7-132.2-73.8-176.8-99.8c-25.2-14.7-42.8-21.2-52.1-54.3c-15.9-56.3,8.6-137.1,46.5-174.5c3.9-3.8,8.1-6.9,12.4-9.3
			c26.3-14.7,64.3-18.9,93.3-24.7l222.7-44.9c81.9-14.6,168.8,64.2,216.6,154.5c33.3,63.1,43.1,88.5,33.4,127.1
			c-20.4,80.5-124.8,175.6-200.4,198C1869.4,1394.1,1860.1,1394.8,1847.8,1392.1z"/>
		<linearGradient id="SVGID_4_" gradientUnits="userSpaceOnUse" x1="1416.6382" y1="850.0507" x2="1966.858" y2="532.3811">
			<stop  offset="0" style="stop-color:#EC1C24"/>
			<stop  offset="1" style="stop-color:#900D10"/>
		</linearGradient>
		<path class="st3" d="M1915.9,837.7c-20.5,10.5-51.2,18.8-86,27.4c-26.9,6.6-55.5,14.3-85.1,20.3c-73.2,15-148.6,28.5-199.6,37.4
			c-28.7,5-46.3,11.3-74.7-8.1c-48.4-32.9-81.4-110.6-76.3-163.5c0.6-5.5,1.9-10.6,3.6-15.2c10.7-28.2,37.1-55.8,55.5-79
			l141.8-177.8c53.3-63.9,170.4-59.5,265-21.1c66,26.9,89.8,40.1,107.2,75.9c36.1,74.8,17.1,214.9-26.4,280.7
			C1933.9,825.4,1927.1,831.9,1915.9,837.7z"/>
		<linearGradient id="SVGID_5_" gradientUnits="userSpaceOnUse" x1="1237.9333" y1="700.0919" x2="1455.4636" y2="102.4321">
			<stop  offset="0" style="stop-color:#EC1C24"/>
			<stop  offset="1" style="stop-color:#900D10"/>
		</linearGradient>
		<path class="st4" d="M1612.4,369.1c-8.9,21.2-27.1,47.4-48.3,76.3c-16.3,22.3-33.4,46.7-52.2,70.4
			c-46.4,58.6-95.5,117.5-128.8,157.1c-18.8,22.3-28.3,38.5-62.4,42c-58.2,5.9-133.3-32.3-163.4-76.2c-3.1-4.5-5.4-9.2-7-13.9
			c-9.9-28.5-7.4-66.7-8.1-96.3l-5.5-227.6c-0.2-83.3,92.4-155.3,189.5-186.8c67.8-21.9,94.5-27.1,130.7-10.8
			c75.6,34,151,153.6,159.9,232C1618.3,348.1,1617.3,357.4,1612.4,369.1z"/>
		<linearGradient id="SVGID_6_" gradientUnits="userSpaceOnUse" x1="1005.1573" y1="700.0466" x2="787.6375" y2="102.4156">
			<stop  offset="0" style="stop-color:#EC1C24"/>
			<stop  offset="1" style="stop-color:#900D10"/>
		</linearGradient>
		<path class="st5" d="M1079.2,205.6c6.7,22,9.5,53.7,11.9,89.6c1.9,27.6,4.5,57.2,5.2,87.5c2,74.8,2.2,151.6,2.1,203.3
			c-0.1,29.2,3.1,47.7-20.9,72.3c-40.8,42-122.8,61.1-174,46.9c-5.2-1.4-10-3.6-14.2-6.1c-25.9-15.4-48.5-46.3-68.1-68.6L671,459.8
			c-53.6-63.7-28.8-178.5,25.3-265.2c37.8-60.4,55-81.6,93.1-92.5c79.8-22.6,214.3,20.4,271.4,74.8
			C1070.2,185.7,1075.5,193.5,1079.2,205.6z"/>
		<linearGradient id="SVGID_7_" gradientUnits="userSpaceOnUse" x1="826.4212" y1="850.009" x2="276.2642" y2="532.3757">
			<stop  offset="0" style="stop-color:#EC1C24"/>
			<stop  offset="1" style="stop-color:#900D10"/>
		</linearGradient>
		<path class="st6" d="M565.9,423.6c19.2,12.5,41.8,35.1,66.6,60.9c19.1,20,40.1,41,60.2,63.7c49.5,56,98.9,114.6,132.1,154.4
			c18.7,22.5,32.9,34.6,30.3,68.9c-4.3,58.4-54.9,125.9-103.2,148c-5,2.3-10,3.7-14.9,4.5c-29.7,4.9-66.9-4.3-96.1-8.7l-224.6-34
			C334.4,866.9,279.7,763,265.5,661.8c-9.8-70.7-10.2-98,12-130.9c46.6-68.7,177.2-122.4,255.9-117.5
			C546.2,414.2,555.2,416.8,565.9,423.6z"/>
		<linearGradient id="SVGID_8_" gradientUnits="userSpaceOnUse" x1="785.7725" y1="1080.4946" x2="160.3805" y2="1190.7682">
			<stop  offset="0" style="stop-color:#EC1C24"/>
			<stop  offset="1" style="stop-color:#900D10"/>
		</linearGradient>
		<path class="st7" d="M312.4,921.3c22.8-2.9,54.5-0.1,90.1,3.8c27.5,2.9,57,5.5,87,10c73.9,11,149.4,24.1,200.2,33.2
			c28.8,5.1,47.4,5.3,67.5,33.2c34.2,47.6,38.6,131.8,15.9,179.8c-2.4,5-5.3,9.3-8.5,13c-19.6,22.9-53.9,39.8-79.2,55.2l-194,118.5
			c-71.9,41.9-180.5-2.5-256.3-70.9c-52.8-47.8-70.6-68.5-74.7-108c-8.4-82.6,57.2-207.8,120.6-254.7
			C291.4,926.6,299.9,922.9,312.4,921.3z"/>
		<linearGradient id="SVGID_9_" gradientUnits="userSpaceOnUse" x1="902.6584" y1="1282.9681" x2="494.0851" y2="1769.8868">
			<stop  offset="0" style="stop-color:#EC1C24"/>
			<stop  offset="1" style="stop-color:#900D10"/>
		</linearGradient>
		<path class="st8" d="M437.7,1465.6c15.7-16.9,41.7-35.3,71.5-55.2c22.9-15.4,47.2-32.5,73-48.3c63.7-39.2,129.9-77.8,174.7-103.6
			c25.3-14.6,39.7-26.5,73-17.9c56.7,14.4,114.2,76,127.5,127.5c1.4,5.3,1.9,10.5,1.8,15.5c-0.4,30.1-15.7,65.2-25.2,93.3
			l-72.5,215.6c-28.3,78.3-140,114.3-241.9,110.6c-71.2-2.5-98-6.9-126.5-34.6c-59.4-57.8-89.5-196.1-71.1-272.8
			C425,1483.3,429.1,1474.9,437.7,1465.6z"/>
		<linearGradient id="SVGID_10_" gradientUnits="userSpaceOnUse" x1="1337.6146" y1="1798.257" x2="1067.2156" y2="1547.8646">
			<stop  offset="0" style="stop-color:#EC1C29"/>
			<stop  offset="1" style="stop-color:#F5A0A7"/>
		</linearGradient>
		<path class="st9" d="M1217.8,1416.4c17.4,20.5,27,51.5,36.4,75.5l77.6,199.3c28,72.6-31.9,166-111.4,223.3
			c-20.1,14.5-35.8,28-45.6-5.1c-8-27-12.2-84.7-15.5-123.6c-7-82.2-8.5-176.7-13.8-259.1c-1.2-18-1.4-33,0.5-45.7
			C1150.8,1448.6,1169.3,1431.1,1217.8,1416.4z"/>
		<defs>
			<filter id="Adobe_OpacityMaskFilter" filterUnits="userSpaceOnUse" x="903.9" y="1632.1" width="242.1" height="320.7">
				<feColorMatrix  type="matrix" values="1 0 0 0 0  0 1 0 0 0  0 0 1 0 0  0 0 0 1 0"/>
			</filter>
		</defs>
		<mask maskUnits="userSpaceOnUse" x="903.9" y="1632.1" width="242.1" height="320.7" id="SVGID_11_">
			<g class="st10">
				<linearGradient id="SVGID_12_" gradientUnits="userSpaceOnUse" x1="1134.8513" y1="1569.3427" x2="990.9196" y2="1934.4191">
					<stop  offset="0" style="stop-color:#231F20"/>
					<stop  offset="0.1371" style="stop-color:#3B3738"/>
					<stop  offset="0.4276" style="stop-color:#787676"/>
					<stop  offset="0.8445" style="stop-color:#D9D8D9"/>
					<stop  offset="1" style="stop-color:#FFFFFF"/>
				</linearGradient>
				<path class="st11" d="M947.7,1871.5c55.8,58.2,128.9,87.6,165.2,80.1c44.1-9.1,33.5-72.8,27.4-179.8l-81-129.4l-13.3-10.3
					c-32.2,24.1-61.3,50.8-90.9,81.4c-32.1,33.2-51,56-51.1,79C903.8,1822.8,926.6,1849.7,947.7,1871.5z"/>
			</g>
		</mask>
		<path class="st12" d="M947.7,1871.5c55.8,58.2,128.9,87.6,165.2,80.1c44.1-9.1,33.5-72.8,27.4-179.8l-81-129.4l-13.3-10.3
			c-32.2,24.1-61.3,50.8-90.9,81.4c-32.1,33.2-51,56-51.1,79C903.8,1822.8,926.6,1849.7,947.7,1871.5z"/>
		<linearGradient id="SVGID_13_" gradientUnits="userSpaceOnUse" x1="1786.4081" y1="1479.0493" x2="1417.0127" y2="1457.8794">
			<stop  offset="0" style="stop-color:#EC1C29"/>
			<stop  offset="1" style="stop-color:#F5A0A7"/>
		</linearGradient>
		<path class="st13" d="M1448.9,1261.9c26.4,4.5,53.7,22,76.3,34.5l187.3,102.7c68,37.6,82.2,147.7,57.9,242.8
			c-6,24-9.4,44.5-38.2,25.5c-23.4-15.5-63.7-57.1-91.2-84.7c-58.1-58.4-119.9-129.8-176.8-189.5c-12.4-13-22.2-24.3-28.9-35.2
			C1418.3,1329.8,1421.3,1304.5,1448.9,1261.9z"/>
		<defs>
			<filter id="Adobe_OpacityMaskFilter_1_" filterUnits="userSpaceOnUse" x="1436.6" y="1537.2" width="283.3" height="249.1">
				<feColorMatrix  type="matrix" values="1 0 0 0 0  0 1 0 0 0  0 0 1 0 0  0 0 0 1 0"/>
			</filter>
		</defs>
		<mask maskUnits="userSpaceOnUse" x="1436.6" y="1537.2" width="283.3" height="249.1" id="SVGID_14_">
			<g class="st14">
				<linearGradient id="SVGID_15_" gradientUnits="userSpaceOnUse" x1="1491.1837" y1="1427.1112" x2="1604.3243" y2="1803.2479">
					<stop  offset="0" style="stop-color:#231F20"/>
					<stop  offset="0.1371" style="stop-color:#3B3738"/>
					<stop  offset="0.4276" style="stop-color:#787676"/>
					<stop  offset="0.8445" style="stop-color:#D9D8D9"/>
					<stop  offset="1" style="stop-color:#FFFFFF"/>
				</linearGradient>
				<path class="st15" d="M1534.1,1784.6c80,8.6,155-16,177.9-45c28-35.4-21.1-77.4-94.4-155.4l-145.1-46.9l-16.9,0.7
					c-9.2,39.1-14.4,78.4-17.3,120.8c-3.3,46.2-3.2,75.7,11.5,93.5C1469.2,1775.3,1504,1781.4,1534.1,1784.6z"/>
			</g>
		</mask>
		<path class="st16" d="M1534.1,1784.6c80,8.6,155-16,177.9-45c28-35.4-21.1-77.4-94.4-155.4l-145.1-46.9l-16.9,0.7
			c-9.2,39.1-14.4,78.4-17.3,120.8c-3.3,46.2-3.2,75.7,11.5,93.5C1469.2,1775.3,1504,1781.4,1534.1,1784.6z"/>
		<linearGradient id="SVGID_16_" gradientUnits="userSpaceOnUse" x1="1924.0161" y1="943.6444" x2="1629.157" y2="1165.5142">
			<stop  offset="0" style="stop-color:#EC1C29"/>
			<stop  offset="1" style="stop-color:#F5A0A7"/>
		</linearGradient>
		<path class="st17" d="M1526.9,994.8c23.1-13.6,55.3-17.8,80.5-22.8l209.4-42c76.2-14.9,157.7,60.2,200.2,148.7
			c10.7,22.4,21.3,40.3-12.9,44.1c-27.9,3.2-85.4-2.7-124.2-6.2c-82-7.2-175.2-22.2-257.1-31.3c-17.8-2-32.6-4.3-44.7-8.4
			C1547,1066.5,1533.1,1045.1,1526.9,994.8z"/>
		<defs>
			<filter id="Adobe_OpacityMaskFilter_2_" filterUnits="userSpaceOnUse" x="1709.1" y="1133.1" width="325.8" height="237.6">
				<feColorMatrix  type="matrix" values="1 0 0 0 0  0 1 0 0 0  0 0 1 0 0  0 0 0 1 0"/>
			</filter>
		</defs>
		<mask maskUnits="userSpaceOnUse" x="1709.1" y="1133.1" width="325.8" height="237.6" id="SVGID_17_">
			<g class="st18">
				<linearGradient id="SVGID_18_" gradientUnits="userSpaceOnUse" x1="1665.0245" y1="1096.0868" x2="1993.8798" y2="1309.1871">
					<stop  offset="0" style="stop-color:#231F20"/>
					<stop  offset="0.1371" style="stop-color:#3B3738"/>
					<stop  offset="0.4276" style="stop-color:#787676"/>
					<stop  offset="0.8445" style="stop-color:#D9D8D9"/>
					<stop  offset="1" style="stop-color:#FFFFFF"/>
				</linearGradient>
				<path class="st19" d="M1927.5,1340.4c66.9-45,108.5-112.2,107.4-149.1c-1.3-45-65.7-45.7-172-58.2l-141.3,57.4l-12.5,11.3
					c18.1,35.9,39.2,69.4,64.3,103.9c27.1,37.4,46.2,60.1,68.8,64.1C1871.9,1375.1,1902.4,1357.2,1927.5,1340.4z"/>
			</g>
		</mask>
		<path class="st20" d="M1927.5,1340.4c66.9-45,108.5-112.2,107.4-149.1c-1.3-45-65.7-45.7-172-58.2l-141.3,57.4l-12.5,11.3
			c18.1,35.9,39.2,69.4,64.3,103.9c27.1,37.4,46.2,60.1,68.8,64.1C1871.9,1375.1,1902.4,1357.2,1927.5,1340.4z"/>
		<linearGradient id="SVGID_19_" gradientUnits="userSpaceOnUse" x1="1686.1747" y1="445.0856" x2="1603.5194" y2="804.8232">
			<stop  offset="0" style="stop-color:#EC1C29"/>
			<stop  offset="1" style="stop-color:#F5A0A7"/>
		</linearGradient>
		<path class="st21" d="M1415.2,739.9c9-25.3,30.9-49.2,47-69.3l133.5-166.9c48.8-60.5,159.4-55.4,248.8-15
			c22.6,10.2,42.1,17.1,18.5,42.2c-19.4,20.4-67.2,53-99.1,75.3c-67.5,47.2-148.4,95.7-217.1,141.6c-15,9.9-27.7,17.6-39.7,22.3
			C1476.6,781.9,1452.2,774.6,1415.2,739.9z"/>
		<defs>
			<filter id="Adobe_OpacityMaskFilter_3_" filterUnits="userSpaceOnUse" x="1687.7" y="551.2" width="268.2" height="279.4">
				<feColorMatrix  type="matrix" values="1 0 0 0 0  0 1 0 0 0  0 0 1 0 0  0 0 0 1 0"/>
			</filter>
		</defs>
		<mask maskUnits="userSpaceOnUse" x="1687.7" y="551.2" width="268.2" height="279.4" id="SVGID_20_">
			<g class="st22">
				<linearGradient id="SVGID_21_" gradientUnits="userSpaceOnUse" x1="1591.7031" y1="726.7059" x2="1975.8379" y2="680.3099">
					<stop  offset="0" style="stop-color:#231F20"/>
					<stop  offset="0.1371" style="stop-color:#3B3738"/>
					<stop  offset="0.4276" style="stop-color:#787676"/>
					<stop  offset="0.8445" style="stop-color:#D9D8D9"/>
					<stop  offset="1" style="stop-color:#FFFFFF"/>
				</linearGradient>
				<path class="st23" d="M1943.8,746.7c22.4-77.5,11.2-155.7-13.4-183.3c-29.9-33.7-79.7,7.3-169.1,66.2l-71.4,134.9l-2.2,16.8
					c36.9,15.9,74.5,27.9,115.8,38.2c44.8,11.2,73.9,16.3,93.8,4.9C1923.5,809.1,1935.5,775.9,1943.8,746.7z"/>
			</g>
		</mask>
		<path class="st24" d="M1943.8,746.7c22.4-77.5,11.2-155.7-13.4-183.3c-29.9-33.7-79.7,7.3-169.1,66.2l-71.4,134.9l-2.2,16.8
			c36.9,15.9,74.5,27.9,115.8,38.2c44.8,11.2,73.9,16.3,93.8,4.9C1923.5,809.1,1935.5,775.9,1943.8,746.7z"/>
		<linearGradient id="SVGID_22_" gradientUnits="userSpaceOnUse" x1="1202.0184" y1="143.9703" x2="1344.4501" y2="649.2277">
			<stop  offset="0" style="stop-color:#EC1C29"/>
			<stop  offset="1" style="stop-color:#F5A0A7"/>
		</linearGradient>
		<path class="st25" d="M1166.2,616.6c-9.3-25.2-7.9-57.6-8.4-83.4l-4.9-213.9c-1.5-77.8,86.6-145.1,180.9-171.7
			c23.8-6.8,43.3-14,41.1,20.4c-1.7,28.1-17.5,83.8-27.6,121.5c-21.5,79.6-52.3,168.9-75.5,248.1c-5.1,17.3-9.9,31.5-16.1,42.7
			C1240.1,609.2,1216.7,619.3,1166.2,616.6z"/>
		<defs>
			<filter id="Adobe_OpacityMaskFilter_4_" filterUnits="userSpaceOnUse" x="1360.4" y="149.2" width="233" height="323.7">
				<feColorMatrix  type="matrix" values="1 0 0 0 0  0 1 0 0 0  0 0 1 0 0  0 0 0 1 0"/>
			</filter>
		</defs>
		<mask maskUnits="userSpaceOnUse" x="1360.4" y="149.2" width="233" height="323.7" id="SVGID_23_">
			<g class="st26">
				<linearGradient id="SVGID_24_" gradientUnits="userSpaceOnUse" x1="1293.3342" y1="501.7019" x2="1556.5802" y2="207.9808">
					<stop  offset="0" style="stop-color:#231F20"/>
					<stop  offset="0.1371" style="stop-color:#3B3738"/>
					<stop  offset="0.4276" style="stop-color:#787676"/>
					<stop  offset="0.8445" style="stop-color:#D9D8D9"/>
					<stop  offset="1" style="stop-color:#FFFFFF"/>
				</linearGradient>
				<path class="st27" d="M1575.4,281.4c-32.6-73.8-91.3-126.5-128-131.8c-44.5-6.5-56.3,56.9-87,159.5l31.9,149.4l9,14.3
					c38.4-11.6,74.9-26.7,113.1-45.4c41.6-20.3,67.1-35.2,75-56.7C1599.9,342.3,1587.7,309.1,1575.4,281.4z"/>
			</g>
		</mask>
		<path class="st28" d="M1575.4,281.4c-32.6-73.8-91.3-126.5-128-131.8c-44.5-6.5-56.3,56.9-87,159.5l31.9,149.4l9,14.3
			c38.4-11.6,74.9-26.7,113.1-45.4c41.6-20.3,67.1-35.2,75-56.7C1599.9,342.3,1587.7,309.1,1575.4,281.4z"/>
		<linearGradient id="SVGID_25_" gradientUnits="userSpaceOnUse" x1="653.2351" y1="365.209" x2="992.5389" y2="506.8646">
			<stop  offset="0" style="stop-color:#EC1C29"/>
			<stop  offset="1" style="stop-color:#F5A0A7"/>
		</linearGradient>
		<path class="st29" d="M896.1,682.5c-23.3-13.3-42.9-39-59.9-58.5l-141-160.7c-51-58.7-26.8-166.9,28.5-248
			c13.9-20.5,24.1-38.6,44.6-10.8c16.7,22.5,40.4,75.4,56.8,110.8c34.7,74.9,68.3,163.1,101.4,238.7c7.2,16.5,12.6,30.4,15.1,43
			C948.1,629.3,936.7,652,896.1,682.5z"/>
		<defs>
			<filter id="Adobe_OpacityMaskFilter_5_" filterUnits="userSpaceOnUse" x="794.8" y="131.5" width="270.6" height="289.4">
				<feColorMatrix  type="matrix" values="1 0 0 0 0  0 1 0 0 0  0 0 1 0 0  0 0 0 1 0"/>
			</filter>
		</defs>
		<mask maskUnits="userSpaceOnUse" x="794.8" y="131.5" width="270.6" height="289.4" id="SVGID_26_">
			<g class="st30">
				<linearGradient id="SVGID_27_" gradientUnits="userSpaceOnUse" x1="920.2881" y1="508.4392" x2="933.0309" y2="115.6652">
					<stop  offset="0" style="stop-color:#231F20"/>
					<stop  offset="0.1371" style="stop-color:#3B3738"/>
					<stop  offset="0.4276" style="stop-color:#787676"/>
					<stop  offset="0.8445" style="stop-color:#D9D8D9"/>
					<stop  offset="1" style="stop-color:#FFFFFF"/>
				</linearGradient>
				<path class="st31" d="M994.6,162.2c-72.3-35.6-151.1-38.1-182.5-18.7c-38.3,23.6-6.7,79.9,35.7,178.3l120.2,93.9l16.1,5.1
					c22-33.6,40.3-68.6,57.6-107.7c18.8-42.2,28.8-70.1,21-91.7C1052.4,193.1,1021.8,175.6,994.6,162.2z"/>
			</g>
		</mask>
		<path class="st32" d="M994.6,162.2c-72.3-35.6-151.1-38.1-182.5-18.7c-38.3,23.6-6.7,79.9,35.7,178.3l120.2,93.9l16.1,5.1
			c22-33.6,40.3-68.6,57.6-107.7c18.8-42.2,28.8-70.1,21-91.7C1052.4,193.1,1021.8,175.6,994.6,162.2z"/>
		<linearGradient id="SVGID_28_" gradientUnits="userSpaceOnUse" x1="343.3995" y1="821.3961" x2="690.8139" y2="709.1843">
			<stop  offset="0" style="stop-color:#EC1C29"/>
			<stop  offset="1" style="stop-color:#F5A0A7"/>
		</linearGradient>
		<path class="st33" d="M731.6,906.8c-26.4,4.9-58-2.2-83.4-6.2l-211.1-32.3C360.3,856.3,309.5,757.7,299.8,660
			c-2.5-24.7-6.3-45.1,27.2-37c27.3,6.5,79.3,31.8,114.7,48.3c74.6,35,157,80.9,230.9,117.6c16.1,7.9,29.2,15.2,39.2,23.2
			C737.2,832.7,743,857.4,731.6,906.8z"/>
		<defs>
			<filter id="Adobe_OpacityMaskFilter_6_" filterUnits="userSpaceOnUse" x="319.3" y="437.2" width="311.8" height="224.6">
				<feColorMatrix  type="matrix" values="1 0 0 0 0  0 1 0 0 0  0 0 1 0 0  0 0 0 1 0"/>
			</filter>
		</defs>
		<mask maskUnits="userSpaceOnUse" x="319.3" y="437.2" width="311.8" height="224.6" id="SVGID_29_">
			<g class="st34">
				<linearGradient id="SVGID_30_" gradientUnits="userSpaceOnUse" x1="636.2695" y1="760.4142" x2="397.3184" y2="448.8045">
					<stop  offset="0" style="stop-color:#231F20"/>
					<stop  offset="0.1371" style="stop-color:#3B3738"/>
					<stop  offset="0.4276" style="stop-color:#787676"/>
					<stop  offset="0.8445" style="stop-color:#D9D8D9"/>
					<stop  offset="1" style="stop-color:#FFFFFF"/>
				</linearGradient>
				<path class="st35" d="M473.2,444.9C395,464.2,332.9,513,321.4,548.2c-14.2,42.7,46.2,65.5,141.7,113.6l152.4-5.5l15.7-6.4
					c-4.8-39.9-13.3-78.6-25-119.6c-12.7-44.4-22.9-72.2-42.8-83.9C537.3,431.3,502.6,437.6,473.2,444.9z"/>
			</g>
		</mask>
		<path class="st36" d="M473.2,444.9C395,464.2,332.9,513,321.4,548.2c-14.2,42.7,46.2,65.5,141.7,113.6l152.4-5.5l15.7-6.4
			c-4.8-39.9-13.3-78.6-25-119.6c-12.7-44.4-22.9-72.2-42.8-83.9C537.3,431.3,502.6,437.6,473.2,444.9z"/>
		<linearGradient id="SVGID_31_" gradientUnits="userSpaceOnUse" x1="395.8216" y1="1368.9734" x2="593.1133" y2="1059.4066">
			<stop  offset="0" style="stop-color:#EC1C29"/>
			<stop  offset="1" style="stop-color:#F5A0A7"/>
		</linearGradient>
		<path class="st37" d="M749.6,1184.6c-17.1,20.8-45.9,35.6-67.9,49.1l-182.5,111.1c-66.5,40.2-168.7-2.6-238.8-71.1
			c-17.8-17.3-33.7-30.5-3-45.9c25.1-12.6,81.2-26.9,118.8-36.8c79.6-21.2,172.2-39.1,252.3-58.7c17.5-4.2,32.1-7,44.9-7.4
			C706.3,1124.2,726.6,1139.4,749.6,1184.6z"/>
		<defs>
			<filter id="Adobe_OpacityMaskFilter_7_" filterUnits="userSpaceOnUse" x="200.4" y="939.7" width="307.2" height="258.1">
				<feColorMatrix  type="matrix" values="1 0 0 0 0  0 1 0 0 0  0 0 1 0 0  0 0 0 1 0"/>
			</filter>
		</defs>
		<mask maskUnits="userSpaceOnUse" x="200.4" y="939.7" width="307.2" height="258.1" id="SVGID_32_">
			<g class="st38">
				<linearGradient id="SVGID_33_" gradientUnits="userSpaceOnUse" x1="585.291" y1="1126.5319" x2="201.2108" y2="1051.6981">
					<stop  offset="0" style="stop-color:#231F20"/>
					<stop  offset="0.1371" style="stop-color:#3B3738"/>
					<stop  offset="0.4276" style="stop-color:#787676"/>
					<stop  offset="0.8445" style="stop-color:#D9D8D9"/>
					<stop  offset="1" style="stop-color:#FFFFFF"/>
				</linearGradient>
				<path class="st39" d="M255.2,997.2c-47.5,65.2-63.7,142.5-50.1,176.9c16.6,41.8,77.4,20.4,181.5-4.3l113.1-102.4l7.8-15
					c-29.2-27.5-60.6-51.6-95.8-75.5c-38.2-25.8-63.9-40.6-86.6-36.7C295.6,945.5,273,972.7,255.2,997.2z"/>
			</g>
		</mask>
		<path class="st40" d="M255.2,997.2c-47.5,65.2-63.7,142.5-50.1,176.9c16.6,41.8,77.4,20.4,181.5-4.3l113.1-102.4l7.8-15
			c-29.2-27.5-60.6-51.6-95.8-75.5c-38.2-25.8-63.9-40.6-86.6-36.7C295.6,945.5,273,972.7,255.2,997.2z"/>
		<linearGradient id="SVGID_34_" gradientUnits="userSpaceOnUse" x1="788.2756" y1="1755.494" x2="741.8895" y2="1389.8497">
			<stop  offset="0" style="stop-color:#EC1C29"/>
			<stop  offset="1" style="stop-color:#F5A0A7"/>
		</linearGradient>
		<path class="st41" d="M941.6,1385.9c0.2,26.7-12.3,56.8-20.5,81.3l-68.5,202.5c-25.2,73.6-130.9,106.8-228.6,99.3
			c-24.7-1.8-45.4-1.6-31.7-33.2c11.1-25.8,45-72.8,67.4-104.7c47.3-67.5,106.8-140.8,155.7-207.3c10.7-14.6,20-26.2,29.6-34.7
			C869.6,1367.5,895,1366,941.6,1385.9z"/>
		<defs>
			<filter id="Adobe_OpacityMaskFilter_8_" filterUnits="userSpaceOnUse" x="441.6" y="1439.4" width="233.4" height="293.6">
				<feColorMatrix  type="matrix" values="1 0 0 0 0  0 1 0 0 0  0 0 1 0 0  0 0 0 1 0"/>
			</filter>
		</defs>
		<mask maskUnits="userSpaceOnUse" x="441.6" y="1439.4" width="233.4" height="293.6" id="SVGID_35_">
			<g class="st42">
				<linearGradient id="SVGID_36_" gradientUnits="userSpaceOnUse" x1="778.9037" y1="1449.6672" x2="435.1555" y2="1636.8942">
					<stop  offset="0" style="stop-color:#231F20"/>
					<stop  offset="0.1371" style="stop-color:#3B3738"/>
					<stop  offset="0.4276" style="stop-color:#787676"/>
					<stop  offset="0.8445" style="stop-color:#D9D8D9"/>
					<stop  offset="1" style="stop-color:#FFFFFF"/>
				</linearGradient>
				<path class="st43" d="M442.6,1560.7c5.4,80.5,42.6,150.1,75.2,167.7c39.6,21.3,72.4-34.2,136.3-120.2l21-151.2l-3.6-16.6
					c-40.1-2.3-79.6-0.5-121.9,3.9c-45.9,4.8-75,10-89.8,27.6C440.3,1495,440.5,1530.3,442.6,1560.7z"/>
			</g>
		</mask>
		<path class="st44" d="M442.6,1560.7c5.4,80.5,42.6,150.1,75.2,167.7c39.6,21.3,72.4-34.2,136.3-120.2l21-151.2l-3.6-16.6
			c-40.1-2.3-79.6-0.5-121.9,3.9c-45.9,4.8-75,10-89.8,27.6C440.3,1495,440.5,1530.3,442.6,1560.7z"/>
	</g>
	<g>
		<linearGradient id="SVGID_37_" gradientUnits="userSpaceOnUse" x1="4675.1523" y1="1593.9518" x2="4675.1523" y2="515.6515">
			<stop  offset="0" style="stop-color:#A54D29"/>
			<stop  offset="0.1341" style="stop-color:#AE633C"/>
			<stop  offset="0.3191" style="stop-color:#B77B51"/>
			<stop  offset="0.5163" style="stop-color:#BE8C60"/>
			<stop  offset="0.7317" style="stop-color:#C29668"/>
			<stop  offset="1" style="stop-color:#C3996B"/>
		</linearGradient>
		<path class="st45" d="M6854.3,867.9c-58-44.8-137.3-52.7-207.9-52.7c-2.2,0-4.5,0.1-6.7,0.1c-251.1,2.5-328.6,146.5-328.6,385.7
			c0,242.6,82,385.8,328.6,392.8c6.3,0.2,12.7,0.3,19.2,0.3c77,0,171.2-17.1,244.6-40.3l10.6-3.3l-30.5-135.3l-12.6,4.3
			c-56.1,19.4-137.6,33.2-196.9,33.2c-11,0-22.7-0.2-34.6-0.9c-38.2-2.2-78.7-9.6-107.3-32.6c-47.5-38.3-55.2-116.1-56.3-173.3
			l-0.1-1.6h163.8h316.7l0.2-11.9C6959.1,1115.8,6954.5,945.5,6854.3,867.9z M6639.7,1111.2h-161.4l0.1-1.9
			c11.6-116,50.2-155.9,161.2-158.5c4-0.1,8.1-0.1,12.3-0.1c33.5,0,77,1.9,104.3,24c35.2,28.3,42.1,92.1,44.6,134.7l0.1,1.8H6639.7z
			 M6225.3,1430.6c-39.1,13.7-81.7,19.1-123,19.1c-94.3,0-107.9-52.1-107.9-136V977.5h248.1V834.8h-248.1V638.6l-156.3,64.9v131.3
			H5717v142.7h121.2v344.6c0,76.4,7.3,176.7,70.8,228.5c46.4,38,113.7,43.3,171.2,43.3c55.9,0,126-10.5,178.4-30.6l9.7-3.8
			l-30.3-133.3L6225.3,1430.6z M5342.9,815.2l-9-0.1c-86.7,0-177.1,13.1-260.9,35.7l-11.3,3l33.9,140.6l12.7-5.1
			c61.4-24.3,138.9-33,204.6-33c10.5,0,20.5,0.1,29.9,0.4c106.3,3,147.4,26.5,150.3,154v2.1l-2.1-0.4c-49.5-9.8-98.1-16-148.2-17.6
			c-8.5-0.3-17.1-0.5-25.7-0.5c-180,0-290.7,45.6-290.7,247.6c0,63.3,8.3,134.6,53.1,182.8c59.4,64,170.2,69.3,251.5,69.3
			c3.9,0,7.9,0,11.8-0.1c94.2-1.5,210-21.6,295.2-57.5l7.4-3.1V1105C5645.5,883.3,5548.2,817,5342.9,815.2z M5493.4,1436.2l-1.2,0.4
			c-47.3,15.7-99.5,24-149.3,24.4h-3.5c-34.4,0-97.4,0.9-123.3-25c-22.8-22.7-23.7-70.7-23.7-101.1c0-27.7,1.8-67.7,23-88.1
			c26.2-25.3,90.8-24,125.4-24l2,0.1c49.1,0,101.2,2.1,149.1,12.7l1.4,0.3V1436.2z M3073.3,656.7c-75.9-64.3-180-83.9-278.6-88.5
			c-18.6-0.9-37-1.2-55.1-1.2h-346.3v1007h346.3c18.1,0,36.5-0.3,55.1-1.3c98.3-4.8,201.4-25.3,277.1-89.8
			c115.5-98.5,134.1-272.8,134.1-415.9C3205.9,925.8,3187.6,753.5,3073.3,656.7z M2950,1373.3c-40.7,35.1-99.2,47.5-155.4,51.8
			c-21.9,1.7-43.4,2-63.4,2h-173.4V713.8h173.4c19.6,0,41.2,0.2,63.4,1.5c56.5,3.2,117,13.8,157.3,47
			c76.9,63.3,79.6,213.8,79.6,306.1C3031.5,1163,3027,1307,2950,1373.3z M4918.3,1430.6c-39,13.7-81.6,19.1-122.9,19.1
			c-94.3,0-107.9-52.1-107.9-136V977.5h248.1V834.8h-248.1V638.6l-156.2,64.9v131.3h-121.2v142.7h121.2v344.6
			c0,76.4,7.2,176.7,70.7,228.5c46.4,38,113.8,43.3,171.2,43.3c56,0,126-10.5,178.4-30.6l9.8-3.8l-30.4-133.4L4918.3,1430.6z
			 M4032.3,981.6c-60.7-5.1-176.1-16.1-207.7-77.4c-9-17.5-11.4-37.7-11.4-57.2c0-32.2,6.1-64.9,26.9-90.2
			c44.7-54.4,147.2-58.4,211.9-58.4c24,0,48,1.1,71.9,3c53,4.1,122.3,12,171.8,31.5l12.4,4.9l39.9-149.7l-11-3.5
			c-87.3-27.9-193.5-41.5-285.1-41.5c-217.7,0-414.7,58.9-414.7,316.7c0,217.6,155.3,262.3,338.5,277.2
			c69.4,6.3,183.1,21.7,213.6,96.5c7.3,17.8,9.6,37.3,9.6,56.5c0,31.8-6.3,63.5-26.7,88.5c-46,56-152.4,60.2-219.1,60.2
			c-77.1,0-175.3-10.5-248.5-34.7l-11.8-3.9l-41.3,147.3l10.9,3.7c88.9,29.7,200.1,43.1,293.5,43.1c214.3,0,417.5-52,417.5-311.2
			C4373.4,1062.2,4224.4,999.4,4032.3,981.6z M3333.1,1574h154.9V834.8h-154.9V1574z M3410.1,515.7c-40.2,0-67.7,6-81.5,27.6
			c-12.4,19.4-12,49.2-1.2,90.2c8.7,33,17.5,50.5,30.3,60.1c11.8,8.9,28.1,11.9,52,11.9c23.7,0,39.8-3.1,51.4-12.1
			c12.6-9.6,21.4-27.3,30-59.8c10.7-40.5,11.3-70.1-0.7-89.6C3477.1,522,3450.1,515.7,3410.1,515.7z"/>
		<linearGradient id="SVGID_38_" gradientUnits="userSpaceOnUse" x1="4675.1523" y1="1566.0481" x2="4675.1523" y2="498.5245">
			<stop  offset="0" style="stop-color:#ED3024"/>
			<stop  offset="0.4244" style="stop-color:#F46C1E"/>
			<stop  offset="0.8092" style="stop-color:#F99C19"/>
			<stop  offset="1" style="stop-color:#FBAE17"/>
		</linearGradient>
		<path class="st46" d="M6854.3,847.2c-58-44.4-137.2-52.2-207.9-52.2c-2.3,0-4.5,0-6.7,0c-251.1,2.5-328.6,145-328.6,381.9
			c0,240.2,82,381.8,328.6,388.7c6.3,0.2,12.7,0.4,19.2,0.4c77,0,171.2-17,244.6-39.9l10.6-3.3l-30.5-134l-12.6,4.3
			c-56.1,19.1-137.6,32.8-196.9,32.8c-10.9,0-22.7-0.2-34.6-0.9c-38.2-2.2-78.6-9.6-107.3-32.4c-47.5-37.7-55.2-114.9-56.3-171.5
			l-0.1-1.8h163.8h316.7l0.2-11.7C6959.1,1092.6,6954.5,924,6854.3,847.2z M6639.7,1088.2h-161.4l0.1-1.9
			c11.6-114.8,50.2-154.3,161.2-156.9c4-0.1,8.1-0.1,12.3-0.1c33.5,0,77,1.9,104.3,23.7c35.2,28.1,42.1,91.2,44.7,133.5l0.1,1.8
			H6639.7z M6225.3,1404.2c-39.1,13.6-81.7,18.9-122.9,18.9c-94.4,0-107.9-51.5-107.9-134.6V955.7h248V814.6h-248V620.2l-156.3,64.2
			v130.1H5717v141.1h121.2v341.2c0,75.6,7.3,175,70.8,226.3c46.4,37.6,113.7,42.9,171.2,42.9c56,0,126-10.4,178.4-30.4l9.7-3.7
			l-30.3-132L6225.3,1404.2z M5342.9,795.1l-9,0c-86.8,0-177.2,12.9-260.9,35.3l-11.3,3l33.9,139.1l12.7-4.9
			c61.4-24,139-32.7,204.7-32.7c10.5,0,20.5,0.1,29.9,0.3c106.3,3,147.4,26.3,150.3,152.4v2.1l-2.1-0.4
			c-49.5-9.7-98.2-15.8-148.2-17.4c-8.5-0.3-17.1-0.4-25.7-0.4c-180,0-290.7,45.2-290.7,245.1c0,62.6,8.3,133.2,53.1,180.9
			c59.4,63.3,170.3,68.6,251.5,68.6c3.9,0,7.8-0.1,11.8-0.1c94.2-1.5,210-21.4,295.2-57l7.3-3v-424
			C5645.5,862.4,5548.3,796.9,5342.9,795.1z M5493.4,1409.8l-1.2,0.4c-47.3,15.5-99.5,23.8-149.3,24.2h-3.4
			c-34.5,0-97.5,0.9-123.4-24.7c-22.8-22.4-23.7-69.9-23.7-100.2c0-27.4,1.8-67,23-87.1c26.2-25.1,90.8-23.8,125.4-23.8h2
			c49.1,0.2,101.2,2.1,149.1,12.7l1.4,0.3V1409.8z M3073.3,638.2c-76-63.6-180.1-83.1-278.6-87.6c-18.6-0.9-37-1.2-55.1-1.2h-346.3
			v996.8h346.3c18.1,0,36.5-0.3,55.1-1.2c98.3-4.8,201.4-25.1,277.1-89c115.5-97.5,134.1-270.1,134.1-411.7
			C3205.9,904.6,3187.7,734.1,3073.3,638.2z M2950,1347.5c-40.7,34.8-99.2,47.2-155.4,51.3c-21.9,1.6-43.4,2-63.4,2h-173.4V694.7
			h173.4c19.6,0,41.2,0.2,63.4,1.4c56.5,3.2,117,13.6,157.3,46.5c76.9,62.7,79.6,211.7,79.6,303
			C3031.5,1139.4,3027,1281.9,2950,1347.5z M4918.4,1404.2c-39.1,13.6-81.7,18.9-122.9,18.9c-94.4,0-107.9-51.5-107.9-134.6V955.7
			h248.1V814.6h-248.1V620.2l-156.2,64.2v130.1h-121.2v141.1h121.2v341.2c0,75.6,7.2,175,70.7,226.3
			c46.4,37.6,113.8,42.9,171.2,42.9c56,0,126-10.4,178.4-30.4l9.8-3.7l-30.4-132L4918.4,1404.2z M4032.3,959.8
			c-60.7-5.1-176.1-15.9-207.7-76.6c-9-17.4-11.4-37.4-11.4-56.7c0-31.9,6.1-64.2,26.9-89.3c44.7-53.9,147.2-57.8,212-57.8
			c24,0,48,1,71.9,2.9c53,4.1,122.3,11.9,171.8,31.2l12.4,4.8l39.9-148.1l-11-3.5c-87.3-27.5-193.5-41-285-41
			c-217.8,0-414.7,58.4-414.7,313.5c0,215.3,155.3,259.5,338.5,274.4c69.4,6.1,183,21.6,213.5,95.4c7.3,17.8,9.6,37.1,9.6,56.1
			c0,31.4-6.3,62.8-26.7,87.5c-46,55.5-152.4,59.6-219.1,59.6c-77.1,0-175.2-10.4-248.5-34.3l-11.8-3.9l-41.3,145.8l10.9,3.6
			c88.9,29.5,200.1,42.8,293.6,42.8c214.3,0,417.5-51.5,417.5-308.2C4373.4,1039.7,4224.4,977.4,4032.3,959.8z M3333.1,1546.2h154.9
			V814.6h-154.9V1546.2z M3410.1,498.5c-40.2,0-67.7,6-81.5,27.3c-12.4,19.3-12,48.6-1.2,89.2c8.7,32.7,17.6,50.1,30.3,59.5
			c11.8,8.8,28.1,11.7,52,11.7c23.7,0,39.8-3.1,51.4-12c12.6-9.6,21.4-27,30-59.3c10.7-40.1,11.3-69.4-0.7-88.7
			C3477.1,504.9,3450.1,498.5,3410.1,498.5z"/>
		<defs>
			<filter id="Adobe_OpacityMaskFilter_9_" filterUnits="userSpaceOnUse" x="2405.4" y="510.7" width="4537.4" height="736.2">
				<feColorMatrix  type="matrix" values="1 0 0 0 0  0 1 0 0 0  0 0 1 0 0  0 0 0 1 0"/>
			</filter>
		</defs>
		<mask maskUnits="userSpaceOnUse" x="2405.4" y="510.7" width="4537.4" height="736.2" id="SVGID_39_">
			<g class="st47">
				<linearGradient id="SVGID_40_" gradientUnits="userSpaceOnUse" x1="4674.0586" y1="529.171" x2="4674.0586" y2="1416.6986">
					<stop  offset="0.2253" style="stop-color:#231F20"/>
					<stop  offset="0.325" style="stop-color:#272324"/>
					<stop  offset="0.4346" style="stop-color:#343132"/>
					<stop  offset="0.5489" style="stop-color:#4A4748"/>
					<stop  offset="0.6665" style="stop-color:#686566"/>
					<stop  offset="0.7866" style="stop-color:#8E8D8E"/>
					<stop  offset="0.9069" style="stop-color:#BDBDBE"/>
					<stop  offset="1" style="stop-color:#E6E7E8"/>
				</linearGradient>
				<path class="st48" d="M6942.1,1071.9c-7.4-83.7-33.1-168.2-95.1-215.1c-55.6-42.5-132.9-49.7-200.5-49.7l-7,0
					c-218.5,2.3-299.1,112.7-313.7,300.6c-5.3,69.7,34.9,67.8,102.8,64.5c69.9-3.4,140.4-6.9,210.9-10.7
					c81.8-4.5,163.8-9.9,244.5-16.8C6923,1141.3,6947.1,1128,6942.1,1071.9z M6639.4,1100.3h-174.5l1.5-15.3
					c12.4-121.4,56.2-165,173-167.8c4.1-0.1,8.3-0.2,12.6-0.2c36.8,0,82,2.5,111.9,26.4c38.7,30.9,46.4,95.8,49.2,142.2l0.9,14.7
					H6639.4z M5982.3,638.3l-132,54.3v134.1h-121.2v116.9h121.2v218.5c0,24.5,12.5,29.5,31.6,31.2c27.3,2.2,54.4,1.6,81.3-3
					c15.5-2.5,19.1-8.6,19.1-33.1V943.6h248V826.7h-248V638.3z M3410.1,510.7c-22.1,0-57.7,0.7-71.3,21.8
					c-13.4,20.8-5.5,57.4,0.4,79.5c4.2,16,11.7,42.5,25.8,52.9c11.6,8.7,30.9,9.3,44.7,9.3c13.8,0,32.6-0.7,44.1-9.5
					c13.9-10.6,21.3-36.8,25.6-52.7c5.9-22.1,13.7-58.3,0.7-79.2C3466.9,511.5,3432,510.7,3410.1,510.7z M5333.9,807.2
					c-86,0-174.4,12.6-257.6,34.8l27.8,114.1c63.3-24.7,141.2-33.5,208.9-33.5c133.5,0,189,18.8,192.3,164.7l0.2,17.1l-16.7-3.3
					c-56.8-11.1-113.8-17.6-171.7-17.6c-127.7,0-218.3,21.8-257.3,110.3c-14.9,33.8,16.4,29.5,49.6,28.7c33.8-0.9,38.7-1.9,66.4-2.9
					c18.6-0.7,25.3-3,38.7-12.3c32.2-21.9,90.4-20.9,126.3-20.9c51,0,103.8,1.9,153.7,12.8c18.2,4,14.1,9.8,42.9,8.8
					c22.9-0.8,23.6-1.6,46.6-2.5c30.5-1,49.3-8,49.3-38.5V1082C5633.4,866.2,5538.7,807.2,5333.9,807.2z M4675.4,638.3l-132,54.3
					v134.1h-121.2v116.9h121.2v261.7c0,34.7,21,29.7,55.4,29.1c24.7-0.5,16.2-1.1,34.7-1.5c28.9-0.8,41.9-6.1,41.9-34.1V943.6h248.1
					V826.7h-248.1V638.3z M4031.3,971.9c-66.2-5.5-183.1-17-217.4-83.1c-10-19.2-12.8-40.9-12.8-62.3c0-34.9,6.9-69.7,29.7-97.1
					c47.7-57.6,152-62.2,221.3-62.2c24.3,0,48.6,1.1,72.8,3c55.6,4.3,123.1,11.7,175.1,31.9l33.4-123.9
					c-87.2-27.5-189.9-40.5-281.3-40.5c-210.6,0-402.6,53.7-402.6,301.4c0,208.2,151,248,327.4,262.3c75,6.7,190.9,23.3,223.7,102.8
					c12.8,31,15.5,36.4,51.8,36c24.8-0.4,22.6-0.8,42.6-1.2c41.1-0.8,68.9,8.2,62.7-35.7C4334.4,1036.2,4199.6,987.3,4031.3,971.9z
					 M3475.8,826.7h-130.6v394.9c0,30,22.6,25,52.4,24.9c23.2,0,35.5-0.1,52-0.2c31.4-0.1,26.2-23.1,26.2-54.2V826.7z M3065.6,647.5
					c-87.7-73.5-215.8-86.1-326-86.1h-334.3v658.8c-0.1,13.6,7,16,17.7,17.6c16.8,2.3,33.9,2.7,51.1,2.6c13.3,0,26.7-0.3,39.8,0
					c18.8,0.4,31.8-1,31.8-22.7V682.5h185.6c72.8,0,169.3,2.6,228.2,50.7c80.9,65.9,84,216.3,84,312.4c0,49.7-1.3,111.2-13,168.7
					c-6,29.2,10.6,31.4,42.5,31.6c33.3,0.1,39.3,0.3,65.6,0.4c29.7,0.1,37-1.6,42.3-31.1c9.9-56.3,12.8-113.8,12.8-170.8
					C3193.8,908.7,3176.7,740.7,3065.6,647.5z"/>
			</g>
		</mask>
		<path class="st49" d="M6942.1,1071.9c-7.4-83.7-33.1-168.2-95.1-215.1c-55.6-42.5-132.9-49.7-200.5-49.7l-7,0
			c-218.5,2.3-299.1,112.7-313.7,300.6c-5.3,69.7,34.9,67.8,102.8,64.5c69.9-3.4,140.4-6.9,210.9-10.7
			c81.8-4.5,163.8-9.9,244.5-16.8C6923,1141.3,6947.1,1128,6942.1,1071.9z M6639.4,1100.3h-174.5l1.5-15.3
			c12.4-121.4,56.2-165,173-167.8c4.1-0.1,8.3-0.2,12.6-0.2c36.8,0,82,2.5,111.9,26.4c38.7,30.9,46.4,95.8,49.2,142.2l0.9,14.7
			H6639.4z M5982.3,638.3l-132,54.3v134.1h-121.2v116.9h121.2v218.5c0,24.5,12.5,29.5,31.6,31.2c27.3,2.2,54.4,1.6,81.3-3
			c15.5-2.5,19.1-8.6,19.1-33.1V943.6h248V826.7h-248V638.3z M3410.1,510.7c-22.1,0-57.7,0.7-71.3,21.8
			c-13.4,20.8-5.5,57.4,0.4,79.5c4.2,16,11.7,42.5,25.8,52.9c11.6,8.7,30.9,9.3,44.7,9.3c13.8,0,32.6-0.7,44.1-9.5
			c13.9-10.6,21.3-36.8,25.6-52.7c5.9-22.1,13.7-58.3,0.7-79.2C3466.9,511.5,3432,510.7,3410.1,510.7z M5333.9,807.2
			c-86,0-174.4,12.6-257.6,34.8l27.8,114.1c63.3-24.7,141.2-33.5,208.9-33.5c133.5,0,189,18.8,192.3,164.7l0.2,17.1l-16.7-3.3
			c-56.8-11.1-113.8-17.6-171.7-17.6c-127.7,0-218.3,21.8-257.3,110.3c-14.9,33.8,16.4,29.5,49.6,28.7c33.8-0.9,38.7-1.9,66.4-2.9
			c18.6-0.7,25.3-3,38.7-12.3c32.2-21.9,90.4-20.9,126.3-20.9c51,0,103.8,1.9,153.7,12.8c18.2,4,14.1,9.8,42.9,8.8
			c22.9-0.8,23.6-1.6,46.6-2.5c30.5-1,49.3-8,49.3-38.5V1082C5633.4,866.2,5538.7,807.2,5333.9,807.2z M4675.4,638.3l-132,54.3
			v134.1h-121.2v116.9h121.2v261.7c0,34.7,21,29.7,55.4,29.1c24.7-0.5,16.2-1.1,34.7-1.5c28.9-0.8,41.9-6.1,41.9-34.1V943.6h248.1
			V826.7h-248.1V638.3z M4031.3,971.9c-66.2-5.5-183.1-17-217.4-83.1c-10-19.2-12.8-40.9-12.8-62.3c0-34.9,6.9-69.7,29.7-97.1
			c47.7-57.6,152-62.2,221.3-62.2c24.3,0,48.6,1.1,72.8,3c55.6,4.3,123.1,11.7,175.1,31.9l33.4-123.9
			c-87.2-27.5-189.9-40.5-281.3-40.5c-210.6,0-402.6,53.7-402.6,301.4c0,208.2,151,248,327.4,262.3c75,6.7,190.9,23.3,223.7,102.8
			c12.8,31,15.5,36.4,51.8,36c24.8-0.4,22.6-0.8,42.6-1.2c41.1-0.8,68.9,8.2,62.7-35.7C4334.4,1036.2,4199.6,987.3,4031.3,971.9z
			 M3475.8,826.7h-130.6v394.9c0,30,22.6,25,52.4,24.9c23.2,0,35.5-0.1,52-0.2c31.4-0.1,26.2-23.1,26.2-54.2V826.7z M3065.6,647.5
			c-87.7-73.5-215.8-86.1-326-86.1h-334.3v658.8c-0.1,13.6,7,16,17.7,17.6c16.8,2.3,33.9,2.7,51.1,2.6c13.3,0,26.7-0.3,39.8,0
			c18.8,0.4,31.8-1,31.8-22.7V682.5h185.6c72.8,0,169.3,2.6,228.2,50.7c80.9,65.9,84,216.3,84,312.4c0,49.7-1.3,111.2-13,168.7
			c-6,29.2,10.6,31.4,42.5,31.6c33.3,0.1,39.3,0.3,65.6,0.4c29.7,0.1,37-1.6,42.3-31.1c9.9-56.3,12.8-113.8,12.8-170.8
			C3193.8,908.7,3176.7,740.7,3065.6,647.5z"/>
	</g>
</g>
</svg>
