<svg width="126" height="36" viewBox="0 0 126 36" fill="none" xmlns="http://www.w3.org/2000/svg">
<path d="M13.5087 31.4789C13.5087 31.0383 13.6849 30.5097 13.8612 29.8488C13.9933 29.3642 14.1255 28.8355 14.3017 28.3069C14.7423 26.9852 15.2269 25.6635 15.5353 24.7824C15.7115 24.2978 15.7996 23.9454 16.3723 23.681C17.3416 23.1964 18.8835 23.4167 19.6765 23.9454C19.7646 23.9894 19.8087 24.0775 19.8968 24.1216C20.2492 24.5621 20.4255 25.223 20.6457 25.7516L22.1877 29.6285C22.7164 31.0824 21.5709 32.8887 20.073 34.0341C19.0597 34.8271 18.6192 35.0915 17.8702 35.0474C16.3283 34.9152 14.3017 33.3292 13.6409 32.0516C13.5087 31.8754 13.4647 31.6992 13.5087 31.4789Z" fill="#515154"/>
<path d="M23.7317 30.9501C23.4674 30.5976 23.2471 30.069 22.9828 29.4962C22.7625 29.0116 22.5422 28.527 22.3219 27.9983C21.8373 26.7207 21.3527 25.3991 21.0003 24.5179C20.824 24.0333 20.6478 23.7249 20.9121 23.1522C21.3527 22.183 22.6744 21.3459 23.6436 21.2578C23.7317 21.2578 23.8198 21.2578 23.9079 21.2578C24.4366 21.3459 25.0534 21.7424 25.4939 22.0068L29.1506 23.9893C30.4722 24.7382 30.7806 26.8969 30.3841 28.7032C30.1198 29.9809 29.9436 30.4655 29.3708 30.906C28.1373 31.7871 25.538 31.9193 24.2163 31.3025C23.996 31.2144 23.8639 31.1263 23.7317 30.9501Z" fill="#515154"/>
<path d="M31.2187 23.945C30.8222 23.8569 30.2935 23.5926 29.6767 23.3283C29.2362 23.108 28.7075 22.8877 28.2229 22.6234C27.0334 21.9625 25.7998 21.2576 24.9628 20.773C24.4781 20.5087 24.1698 20.3765 23.9935 19.7597C23.6851 18.7024 24.1698 17.2486 24.8306 16.5437C24.9187 16.4556 24.9628 16.4115 25.0509 16.3675C25.5355 16.1031 26.2404 16.015 26.769 15.9269L30.8662 15.0898C32.3641 14.8255 33.9501 16.2793 34.8313 17.9094C35.448 19.0549 35.6243 19.5395 35.448 20.2444C35.0956 21.7423 33.1571 23.4604 31.7473 23.901C31.6152 23.9891 31.483 23.9891 31.2187 23.945Z" fill="#515154"/>
<path d="M32.4953 13.7676C32.0988 13.9439 31.5702 14.1201 30.9093 14.2523C30.4247 14.3844 29.8961 14.5166 29.3233 14.6488C27.9576 14.9131 26.5919 15.1774 25.6667 15.3537C25.138 15.4418 24.8296 15.5739 24.301 15.2215C23.4199 14.6047 22.8031 13.1949 22.8912 12.2257C22.8912 12.1376 22.9352 12.0495 22.9352 11.9614C23.1115 11.4327 23.5961 10.9481 23.9485 10.5075L26.5478 7.24739C27.517 6.05788 29.6758 6.14599 31.438 6.85088C32.6716 7.3355 33.0681 7.59983 33.4205 8.26067C34.0813 9.6264 33.7289 12.2257 32.9359 13.4152C32.8037 13.5474 32.7156 13.6795 32.4953 13.7676Z" fill="#515154"/>
<path d="M26.9027 5.17714C26.7265 5.57364 26.4181 6.05825 26.0216 6.58692C25.7132 6.98343 25.4048 7.42398 25.0524 7.86454C24.2153 8.92188 23.2902 10.0233 22.6734 10.7722C22.3209 11.1687 22.1447 11.4771 21.5279 11.5212C20.4706 11.6093 19.0608 10.9484 18.5321 10.1114C18.4881 10.0233 18.444 9.93516 18.4 9.84705C18.2237 9.31838 18.2678 8.61349 18.2678 8.08482L18.1797 3.89952C18.1797 2.35757 19.8979 1.0359 21.6601 0.463173C22.8937 0.066671 23.3783 -0.0214405 24.0832 0.242894C25.4929 0.859675 26.8587 3.06246 27.0349 4.5163C27.0349 4.78064 26.9908 4.95686 26.9027 5.17714Z" fill="#515154"/>
<path d="M17.0767 2.18153C17.2089 2.57803 17.253 3.15075 17.297 3.81159C17.3411 4.34026 17.3851 4.86893 17.3851 5.3976C17.4292 6.76333 17.4292 8.17311 17.4292 9.14234C17.4292 9.67101 17.4732 10.0235 17.0327 10.464C16.2837 11.213 14.7858 11.5654 13.8166 11.3451C13.7285 11.3011 13.6404 11.3011 13.5523 11.213C13.0677 10.9486 12.6712 10.3759 12.3187 9.93534L9.58725 6.85144C8.61802 5.66193 9.05858 3.59131 10.0719 1.96125C10.7768 0.859854 11.0851 0.463352 11.79 0.243073C13.2439 -0.153429 15.711 0.639575 16.7683 1.6088C16.9446 1.78503 17.0327 1.96125 17.0767 2.18153Z" fill="#515154"/>
<path d="M7.651 6.19057C8.00345 6.41085 8.39995 6.85141 8.88457 7.29197C9.23701 7.64441 9.63351 8.04092 9.98596 8.48147C10.9111 9.49476 11.7922 10.5962 12.409 11.301C12.7615 11.6975 13.0258 11.9178 12.9818 12.5787C12.8936 13.636 11.9685 14.8696 11.0874 15.3101C10.9992 15.3542 10.9111 15.3982 10.823 15.3982C10.2943 15.4863 9.58946 15.3101 9.06079 15.222L4.91955 14.6052C3.42165 14.3409 2.40837 12.4465 2.14403 10.5962C1.96781 9.31853 1.96781 8.78986 2.36431 8.17308C3.20137 6.89547 5.62444 5.92624 7.07828 6.01435C7.29856 6.01435 7.47478 6.05841 7.651 6.19057Z" fill="#515154"/>
<path d="M2.97992 15.3103C3.37642 15.2662 3.9932 15.3103 4.65404 15.3984C5.13865 15.4424 5.71138 15.4865 6.24005 15.5746C7.60577 15.7949 8.9715 16.0151 9.94073 16.1914C10.4694 16.2795 10.8218 16.2795 11.1743 16.8081C11.7911 17.6893 11.8792 19.2312 11.4827 20.1123C11.4386 20.2004 11.3946 20.2886 11.3065 20.3326C10.954 20.7732 10.2932 21.0816 9.85262 21.3459L6.2841 23.5046C4.96243 24.2536 2.97992 23.4606 1.57013 22.183C0.600907 21.3018 0.248462 20.9053 0.204406 20.2004C0.0281831 18.7025 1.26174 16.3676 2.40719 15.5305C2.62747 15.3984 2.75964 15.3543 2.97992 15.3103Z" fill="#515154"/>
<path d="M5.3133 25.3106C5.62169 25.0022 6.06225 24.6498 6.63497 24.2973C7.07553 24.033 7.51609 23.6806 8.0007 23.4162C9.19021 22.7113 10.3797 22.0064 11.2168 21.5218C11.7014 21.2575 11.9657 21.0372 12.5384 21.1694C13.5958 21.4337 14.6531 22.5792 14.8734 23.5043C14.9175 23.5925 14.9175 23.6806 14.9175 23.7687C14.9175 24.3414 14.6091 24.9582 14.4328 25.4869L13.1112 29.4519C12.5825 30.9057 10.5559 31.5666 8.66154 31.4784C7.33987 31.4344 6.85525 31.3463 6.32658 30.8617C5.22519 29.8043 4.69652 27.2491 5.00491 25.8393C5.04897 25.619 5.13708 25.4869 5.3133 25.3106Z" fill="#515154"/>
<path fill-rule="evenodd" clip-rule="evenodd" d="M19.3684 25.002C18.9719 25.1341 18.6194 25.3544 18.5313 25.839C18.4872 26.1033 18.5313 26.3677 18.5313 26.588C18.6194 28.174 18.6635 29.76 18.7956 31.346C18.8397 31.7865 18.8837 32.4033 18.9278 32.932C18.9719 33.1523 19.1481 33.3285 19.3684 33.3285C19.4565 33.3285 19.5446 33.2844 19.6327 33.2404C20.6019 32.4474 21.7474 30.9935 21.2628 29.76L19.853 26.1033C19.7208 25.7509 19.5886 25.3544 19.3684 25.002Z" fill="#F6F8FD"/>
<path fill-rule="evenodd" clip-rule="evenodd" d="M17.8715 31.0379L16.4617 28.791C15.9771 29.1875 15.4925 29.6281 15.0519 30.0686C14.8316 30.333 14.2148 30.9057 14.2148 31.2581C14.2148 31.6987 14.6113 32.1833 14.9197 32.4476C15.4484 32.9763 16.8141 33.9896 17.6512 33.8134C18.1799 33.7693 17.9155 31.6546 17.8715 31.0379Z" fill="#F6F8FD"/>
<path fill-rule="evenodd" clip-rule="evenodd" d="M24.0813 22.2266C23.861 22.6231 23.7289 22.9755 23.9491 23.4161C24.0813 23.6363 24.2575 23.8126 24.4338 23.9888C25.5351 25.1342 26.5484 26.3237 27.6939 27.4692C28.0023 27.7776 28.4428 28.2622 28.8393 28.6146C29.0156 28.7468 29.2358 28.7909 29.4121 28.6146C29.5002 28.5265 29.5442 28.4384 29.5442 28.3503C29.7645 27.1168 29.7204 25.2664 28.575 24.6496L25.1386 22.7552C24.8303 22.579 24.4338 22.3147 24.0813 22.2266Z" fill="#F6F8FD"/>
<path fill-rule="evenodd" clip-rule="evenodd" d="M26.8154 27.7784L24.3042 26.9854C24.172 27.6021 24.0839 28.263 24.0399 28.8797C23.9958 29.2322 23.9518 30.0693 24.172 30.3336C24.4804 30.686 25.0532 30.7741 25.4937 30.8182C26.2427 30.9063 27.9608 30.7741 28.4455 30.1133C28.7979 29.6728 27.2559 28.2189 26.8154 27.7784Z" fill="#F6F8FD"/>
<path fill-rule="evenodd" clip-rule="evenodd" d="M25.8906 17.0289C25.9787 17.4695 26.1109 17.866 26.5515 17.9982C26.7717 18.0863 27.0801 18.1303 27.3004 18.1303C28.8864 18.3066 30.4284 18.5709 32.0144 18.7031C32.4549 18.7471 33.0717 18.8352 33.6004 18.8352C33.8207 18.8352 33.9969 18.7031 34.0409 18.4828C34.0409 18.3947 34.0409 18.2625 33.9969 18.2184C33.3801 17.1171 32.1465 15.7513 30.8689 16.0157L27.0361 16.8087C26.6836 16.8087 26.2431 16.8968 25.8906 17.0289Z" fill="#F6F8FD"/>
<path fill-rule="evenodd" clip-rule="evenodd" d="M31.5715 19.5391L29.1484 20.5083C29.4568 21.081 29.8093 21.6097 30.1617 22.1384C30.382 22.4027 30.8226 23.1076 31.2191 23.1957C31.6596 23.2838 32.1883 22.9314 32.5407 22.7111C33.1575 22.2705 34.3911 21.1251 34.347 20.288C34.303 19.7153 32.1883 19.6272 31.5715 19.5391Z" fill="#F6F8FD"/>
<path fill-rule="evenodd" clip-rule="evenodd" d="M23.9492 11.9187C24.3017 12.227 24.6101 12.4033 25.0947 12.227C25.3149 12.1389 25.5352 12.0068 25.7555 11.8305C27.0772 10.9494 28.4429 10.1564 29.7646 9.23126C30.1611 8.96692 30.6457 8.61447 31.0863 8.30608C31.2625 8.17392 31.3065 7.95364 31.2184 7.73336C31.1744 7.64525 31.0863 7.60119 30.9981 7.55714C29.8086 7.11658 28.0024 6.85224 27.1653 7.86553L24.6982 10.9494C24.4338 11.2578 24.1254 11.5662 23.9492 11.9187Z" fill="#F6F8FD"/>
<path fill-rule="evenodd" clip-rule="evenodd" d="M29.8976 10.1997L28.6641 12.5346C29.2368 12.7549 29.8536 12.9752 30.4703 13.1073C30.8228 13.1955 31.6158 13.4157 31.9242 13.2395C32.3207 13.0192 32.4969 12.4465 32.6291 12.006C32.8494 11.257 33.0256 9.58289 32.4529 8.96611C32.1445 8.56961 30.4263 9.84722 29.8976 10.1997Z" fill="#F6F8FD"/>
<path fill-rule="evenodd" clip-rule="evenodd" d="M19.147 9.23022C19.5875 9.23022 19.984 9.18616 20.2043 8.7456C20.3365 8.52533 20.3805 8.26099 20.4686 8.04071C20.9092 6.49876 21.4379 5.00086 21.8344 3.50297C21.9665 3.06241 22.1427 2.48968 22.2309 1.96101C22.2749 1.74074 22.1427 1.52046 21.9665 1.4764C21.8784 1.43235 21.7462 1.43235 21.6581 1.4764C20.4686 1.8729 18.8826 2.88619 18.9267 4.1638L19.0148 8.08477C19.1029 8.39316 19.1029 8.87777 19.147 9.23022Z" fill="#F6F8FD"/>
<path fill-rule="evenodd" clip-rule="evenodd" d="M22.6289 4.07679L23.2016 6.67608C23.8184 6.4558 24.3911 6.23552 24.9639 5.92713C25.2723 5.79497 26.0212 5.44252 26.1534 5.09007C26.3296 4.64952 26.0653 4.07679 25.889 3.72434C25.5806 3.01945 24.6114 1.60967 23.8184 1.52156C23.2897 1.38939 22.8051 3.50407 22.6289 4.07679Z" fill="#F6F8FD"/>
<path fill-rule="evenodd" clip-rule="evenodd" d="M13.7722 10.2446C14.1246 9.98031 14.3889 9.67192 14.3008 9.18731C14.2568 8.96703 14.1246 8.70269 14.0365 8.48241C13.4197 7.02857 12.847 5.53068 12.1861 4.12089C12.0099 3.72439 11.7456 3.15167 11.4813 2.66705C11.3931 2.49083 11.1729 2.40272 10.9526 2.44677C10.8645 2.49083 10.7764 2.53489 10.7323 2.623C10.0715 3.72439 9.49874 5.44257 10.3799 6.45585L12.9792 9.40759C13.1994 9.67192 13.4638 10.0244 13.7722 10.2446Z" fill="#F6F8FD"/>
<path fill-rule="evenodd" clip-rule="evenodd" d="M13.1131 4.07638L15.1837 5.70645C15.5361 5.17778 15.8005 4.60505 16.0648 3.98827C16.197 3.67988 16.5494 2.93093 16.4613 2.57849C16.3291 2.13793 15.7564 1.8736 15.404 1.69737C14.7431 1.34493 13.1131 0.90437 12.3641 1.34493C11.8795 1.60926 12.8487 3.54772 13.1131 4.07638Z" fill="#F6F8FD"/>
<path fill-rule="evenodd" clip-rule="evenodd" d="M10.3371 14.5172C10.4253 14.0766 10.4253 13.6801 10.0288 13.3717C9.85253 13.2396 9.5882 13.1074 9.36792 12.9752C7.95813 12.2703 6.54835 11.4773 5.13856 10.8165C4.74206 10.6403 4.16934 10.3319 3.68472 10.1557C3.46445 10.0675 3.24417 10.1557 3.15605 10.3319C3.112 10.42 3.06794 10.5081 3.112 10.5962C3.33228 11.8298 3.99311 13.548 5.31479 13.7682L9.19169 14.341C9.50008 14.4291 9.94064 14.5172 10.3371 14.5172Z" fill="#F6F8FD"/>
<path fill-rule="evenodd" clip-rule="evenodd" d="M5.84233 10.199L8.48567 10.1109C8.39756 9.49414 8.2654 8.87736 8.08917 8.26058C8.00106 7.90813 7.78078 7.11513 7.47239 6.93891C7.07589 6.71863 6.45911 6.8508 6.06261 6.93891C5.31366 7.11513 3.77171 7.82002 3.50737 8.61303C3.33115 9.09764 5.2696 9.9347 5.84233 10.199Z" fill="#F6F8FD"/>
<path fill-rule="evenodd" clip-rule="evenodd" d="M10.3825 19.9803C10.1622 19.5838 9.89789 19.2754 9.41327 19.2754C9.14894 19.2754 8.88461 19.3635 8.66433 19.4076C7.12238 19.8041 5.58042 20.0684 4.03847 20.4649C3.59791 20.5971 2.98113 20.7292 2.49652 20.9055C2.27624 20.9495 2.14407 21.1698 2.18813 21.3901C2.18813 21.4782 2.27624 21.5663 2.3203 21.6544C3.28952 22.4915 4.91959 23.3285 6.02098 22.6677L9.36922 20.6411C9.72166 20.4649 10.1182 20.2446 10.3825 19.9803Z" fill="#F6F8FD"/>
<path fill-rule="evenodd" clip-rule="evenodd" d="M4.16935 19.5401L6.10781 17.7779C5.62319 17.3373 5.13858 16.9849 4.60991 16.5883C4.34558 16.4121 3.64068 15.9275 3.28824 15.9716C2.84768 16.0597 2.45118 16.5443 2.2309 16.8967C1.79034 17.5135 1.04139 19.0555 1.34978 19.8044C1.57006 20.3331 3.59663 19.7163 4.16935 19.5401Z" fill="#F6F8FD"/>
<path fill-rule="evenodd" clip-rule="evenodd" d="M13.9499 24.1215C13.5534 23.9452 13.1569 23.9012 12.7604 24.2096C12.5842 24.3858 12.408 24.6061 12.2758 24.7823C11.3506 26.0599 10.3373 27.2935 9.41217 28.5711C9.14784 28.9676 8.79539 29.4522 8.487 29.8928C8.35484 30.069 8.39889 30.3333 8.57512 30.4655C8.66323 30.5536 8.75134 30.5536 8.83945 30.5536C10.1171 30.5536 11.9234 30.2011 12.3199 28.9676L13.5975 25.2669C13.7296 24.9145 13.9059 24.518 13.9499 24.1215Z" fill="#F6F8FD"/>
<path fill-rule="evenodd" clip-rule="evenodd" d="M8.92582 27.778L9.27827 25.1787C8.61743 25.1787 8.00065 25.1787 7.38387 25.2668C7.03143 25.3109 6.19437 25.3549 5.97409 25.6633C5.6657 26.0158 5.70975 26.6326 5.75381 27.0291C5.79786 27.778 6.23842 29.4081 6.94331 29.8046C7.42793 30.0689 8.57338 28.3067 8.92582 27.778Z" fill="#F6F8FD"/>
<path d="M123.342 12.2261C122.284 11.389 120.83 11.2569 119.509 11.2569C119.465 11.2569 119.421 11.2569 119.377 11.2569C114.751 11.3009 113.341 13.9002 113.341 18.2617C113.341 22.6673 114.839 25.2666 119.377 25.3988C119.509 25.3988 119.597 25.3988 119.729 25.3988C121.139 25.3988 122.857 25.0904 124.223 24.6498L124.399 24.6058L123.826 22.1386L123.606 22.2267C122.593 22.5792 121.095 22.8435 119.993 22.8435C119.773 22.8435 119.597 22.8435 119.377 22.8435C118.672 22.7995 117.923 22.6673 117.394 22.2708C116.513 21.5659 116.381 20.1561 116.337 19.1428V19.0988H119.332H125.148V18.8785C125.28 16.7638 125.192 13.6359 123.342 12.2261ZM119.377 16.6757H116.425V16.6317C116.645 14.517 117.35 13.8121 119.377 13.768C119.465 13.768 119.509 13.768 119.597 13.768C120.214 13.768 121.007 13.8121 121.535 14.2086C122.196 14.7373 122.328 15.8827 122.372 16.6757V16.7198H119.377V16.6757ZM101.093 24.3414V16.5436C101.093 12.4904 99.2871 11.3009 95.5423 11.2569H95.3661C93.7801 11.2569 92.106 11.4771 90.564 11.9177L90.3438 11.9618L90.9605 14.517L91.1808 14.4289C92.3263 13.9883 93.736 13.8121 94.9256 13.8121C95.1018 13.8121 95.3221 13.8121 95.4983 13.8121C97.4367 13.8562 98.2297 14.2967 98.2738 16.6317V16.6757H98.2297C97.3046 16.4995 96.4235 16.3673 95.4983 16.3673C95.3221 16.3673 95.1899 16.3673 95.0137 16.3673C91.7095 16.3673 89.6829 17.2044 89.6829 20.861C89.6829 22.0065 89.8151 23.3281 90.6521 24.1652C91.7535 25.3107 93.7801 25.4428 95.278 25.4428C95.3661 25.4428 95.4102 25.4428 95.4983 25.4428C97.2165 25.3988 99.3752 25.0463 100.917 24.3855L101.093 24.3414ZM98.3178 22.5792C97.4367 22.8876 96.4675 23.0198 95.5423 23.0198H95.4983C94.8815 23.0198 93.692 23.0198 93.2514 22.5792C92.8109 22.1827 92.8109 21.3016 92.8109 20.7289C92.8109 20.2442 92.8549 19.4953 93.2514 19.1428C93.736 18.7023 94.9256 18.7023 95.5423 18.7023H95.5864C96.4675 18.7023 97.4367 18.7463 98.3178 18.9226H98.3619V22.5792H98.3178ZM112.372 24.8701L112.548 24.782L111.975 22.3589L111.755 22.447C111.05 22.7114 110.257 22.7995 109.508 22.7995C107.79 22.7995 107.526 21.8743 107.526 20.3323V14.2527H112.107V11.6534H107.526V8.08485L104.662 9.27435V11.6534H102.415V14.2527H104.662V20.5086C104.662 21.9184 104.794 23.7246 105.984 24.6498C106.821 25.3547 108.098 25.4428 109.112 25.4428C110.125 25.4428 111.402 25.2666 112.372 24.8701ZM53.7775 8.39323C52.3677 7.20373 50.4733 6.85128 48.667 6.76317C48.3145 6.76317 48.0062 6.71912 47.6537 6.71912H41.2656V25.0463H47.6537C48.0062 25.0463 48.3145 25.0463 48.667 25.0023C50.4733 24.9142 52.3677 24.5617 53.7775 23.3722C55.8921 21.5659 56.2446 18.3939 56.2446 15.7946C56.2005 13.2834 55.8921 10.1555 53.7775 8.39323ZM51.5306 21.4337C50.7817 22.0505 49.7243 22.3149 48.667 22.3589C48.2705 22.403 47.874 22.403 47.5215 22.403H44.3495V9.45057H47.5215C47.874 9.45057 48.2705 9.45057 48.667 9.49463C49.7243 9.53868 50.8257 9.75896 51.5747 10.3317C52.9845 11.4771 53.0285 14.2086 53.0285 15.8827C53.0285 17.6009 52.9404 20.2442 51.5306 21.4337ZM87.7445 22.4911C87.0396 22.7554 86.2466 22.8435 85.4976 22.8435C83.7794 22.8435 83.5151 21.9184 83.5151 20.3764V14.2527H88.0969V11.6534H83.5151V8.08485L80.6515 9.27435V11.6534H78.4046V14.2527H80.6515V20.5086C80.6515 21.9184 80.7837 23.7246 81.9732 24.6498C82.8102 25.3547 84.0438 25.4428 85.1011 25.4428C86.1144 25.4428 87.4361 25.2666 88.4053 24.8701L88.5815 24.782L88.0088 22.3589L87.7445 22.4911ZM71.4438 14.2967C70.3424 14.2086 68.1837 13.9883 67.611 12.8869C67.4348 12.5785 67.3907 12.182 67.3907 11.8296C67.3907 11.2569 67.5229 10.6401 67.8753 10.1995C68.7124 9.2303 70.5627 9.14218 71.7963 9.14218C72.2368 9.14218 72.6774 9.14218 73.1179 9.18624C74.0872 9.27435 75.3648 9.40652 76.29 9.75896L76.5102 9.84708L77.2592 7.11562L77.0389 7.07156C75.4529 6.58695 73.4704 6.32261 71.7963 6.32261C67.7872 6.32261 64.1746 7.37995 64.1746 12.0939C64.1746 16.0589 67.0383 16.8519 70.3865 17.1163C71.6641 17.2484 73.7347 17.5128 74.3074 18.8785C74.4396 19.1869 74.4837 19.5393 74.4837 19.8918C74.4837 20.4645 74.3515 21.0372 73.9991 21.5219C73.162 22.5351 71.1795 22.6233 69.99 22.6233C68.5802 22.6233 66.7739 22.447 65.4082 22.0065L65.1879 21.9184L64.439 24.6058L64.6592 24.6939C66.2893 25.2225 68.3599 25.4869 70.0781 25.4869C73.9991 25.4869 77.7438 24.5617 77.7438 19.8477C77.6997 15.7946 74.9683 14.6492 71.4438 14.2967ZM58.5795 25.0904H61.4432V11.6534H58.5795V25.0904ZM59.0201 9.05407C59.2404 9.23029 59.5488 9.27435 59.9893 9.27435C60.4299 9.27435 60.7383 9.23029 60.9145 9.05407C61.1348 8.87785 61.311 8.56946 61.4872 7.95268C61.6634 7.20373 61.7075 6.67506 61.4872 6.32261C61.2229 5.92611 60.7383 5.79395 59.9893 5.79395C59.2404 5.79395 58.7558 5.88206 58.4914 6.27856C58.2712 6.631 58.2712 7.15967 58.4914 7.90862C58.6236 8.56946 58.7998 8.87785 59.0201 9.05407Z" fill="#515154"/>
</svg>
