<svg width="30" height="29" viewBox="0 0 30 29" fill="none" xmlns="http://www.w3.org/2000/svg">
<path d="M0.306299 11.3901C0.306299 12.1234 0.597914 12.8066 1.10056 13.3105C0.530773 13.934 0.240416 14.7697 0.319738 15.6396C0.462486 17.1903 1.85948 18.4055 3.50165 18.4055H11.038C10.6647 19.539 10.0668 21.6167 10.0668 23.2858C10.0668 25.9321 12.3154 28.166 13.727 28.166C14.9935 28.166 15.9 27.4523 15.9378 27.423C16.083 27.3071 16.1672 27.1314 16.1672 26.946V22.8087L19.6822 15.1967L19.8274 15.1223V15.3554C19.8274 15.6921 20.1007 15.9654 20.4375 15.9654H26.5377C28.2202 15.9654 29.5879 14.5977 29.5879 12.9152V3.15467C29.5879 1.47218 28.2202 0.104527 26.5377 0.104527H22.8775C21.5587 0.104527 20.4313 0.946373 20.0067 2.1213C18.9916 1.59909 17.6252 1.32457 16.7772 1.32457H5.57819C4.24953 1.32457 3.08679 2.22012 2.81354 3.45481C2.67325 4.09168 2.75497 4.73222 3.03315 5.28857C2.13274 5.74123 1.52635 6.67212 1.52635 7.72992C1.52635 8.16183 1.62517 8.57543 1.81184 8.94877C0.911434 9.40263 0.306299 10.3323 0.306299 11.3901ZM2.87942 9.88458C3.11487 9.8565 3.31378 9.69671 3.38939 9.47098C3.46379 9.24524 3.40157 8.99761 3.22834 8.8341C2.91842 8.54249 2.74639 8.14964 2.74639 7.72992C2.74639 6.96008 3.32837 6.31343 4.09821 6.22438C4.33366 6.1963 4.53257 6.03651 4.60818 5.81078C4.68258 5.58504 4.62036 5.33741 4.44713 5.1739C4.04571 4.7957 3.88466 4.26497 4.00545 3.71834C4.15551 3.03755 4.81681 2.54462 5.57813 2.54462H16.7772C17.7679 2.54462 19.4296 3.00947 20.0055 3.58658C20.18 3.75981 20.4435 3.81105 20.6704 3.71834C20.8986 3.62438 21.0474 3.40111 21.0474 3.15467C21.0474 2.14566 21.8685 1.32457 22.8775 1.32457H26.5377C27.5468 1.32457 28.3678 2.14566 28.3678 3.15467V12.9152C28.3678 13.9242 27.5468 14.7453 26.5377 14.7453H21.0474V14.1353C21.0474 13.9242 20.9376 13.7278 20.7571 13.6155C20.5789 13.5082 20.3545 13.4972 20.1641 13.5899L18.9441 14.2C18.8208 14.261 18.722 14.3635 18.6635 14.4891L15.0033 22.4196C14.9667 22.5001 14.9472 22.5879 14.9472 22.6758V26.6153C14.6933 26.7556 14.2529 26.946 13.727 26.946C13.0584 26.946 11.2869 25.2842 11.2869 23.2858C11.2869 21.1384 12.4557 18.0432 12.4667 18.0126C12.5374 17.826 12.5131 17.6149 12.3996 17.449C12.2849 17.2842 12.097 17.1854 11.8969 17.1854H3.50165C2.48412 17.1854 1.62031 16.457 1.53493 15.5273C1.47024 14.8319 1.80458 14.1706 2.40359 13.8009C2.59026 13.6863 2.70127 13.4788 2.69275 13.258C2.68423 13.0372 2.55732 12.8396 2.36213 12.7383C1.84604 12.4759 1.52641 11.9587 1.52641 11.3901C1.52635 10.6203 2.10832 9.97362 2.87942 9.88458Z" fill="#0B1E73"/>
<path d="M20.4368 14.7461C20.7736 14.7461 21.0469 14.4728 21.0469 14.136V3.15545C21.0469 2.81871 20.7736 2.54539 20.4368 2.54539C20.1001 2.54539 19.8268 2.81871 19.8268 3.15545V14.136C19.8268 14.4728 20.1001 14.7461 20.4368 14.7461Z" fill="#0B1E73"/>
</svg>
