<svg width="17" height="16" viewBox="0 0 17 16" fill="none" xmlns="http://www.w3.org/2000/svg">
<path d="M16.411 7.83672C16.1517 7.83672 15.9442 8.04416 15.9442 8.30346V12.549C15.9442 13.7038 15.0038 14.6407 13.8526 14.6407H3.61205C2.45731 14.6407 1.52038 13.7003 1.52038 12.549V8.23431C1.52038 7.97502 1.31295 7.76758 1.05365 7.76758C0.794352 7.76758 0.586914 7.97502 0.586914 8.23431V12.549C0.586914 14.2189 1.94563 15.5742 3.61205 15.5742H13.8526C15.5224 15.5742 16.8777 14.2154 16.8777 12.549V8.30346C16.8777 8.04762 16.6703 7.83672 16.411 7.83672Z" fill="#0B1E73"/>
<path d="M8.40363 11.8674C8.49352 11.9573 8.61453 12.0057 8.73208 12.0057C8.84962 12.0057 8.97063 11.9607 9.06052 11.8674L12.0269 8.90102C12.2101 8.71778 12.2101 8.42391 12.0269 8.24067C11.8436 8.05744 11.5498 8.05744 11.3665 8.24067L9.19881 10.4119V0.942321C9.19881 0.683024 8.99137 0.475586 8.73208 0.475586C8.47278 0.475586 8.26534 0.683024 8.26534 0.942321V10.4119L6.09416 8.24067C5.91092 8.05744 5.61705 8.05744 5.43381 8.24067C5.25058 8.42391 5.25058 8.71778 5.43381 8.90102L8.40363 11.8674Z" fill="#0B1E73"/>
</svg>
