<svg width="110" height="29" viewBox="0 0 110 29" fill="none" xmlns="http://www.w3.org/2000/svg">
<path d="M18.3807 23.9612L17.1722 20.8799C17.0172 20.4768 16.8584 19.9458 16.5834 19.6047C16.5369 19.5466 16.4827 19.4962 16.4207 19.4497C15.7893 19.0001 14.5731 18.8528 13.8061 19.2249C13.3568 19.4419 13.3064 19.7094 13.1593 20.1086C12.8997 20.814 12.5201 21.8644 12.1793 22.8992C12.0398 23.3178 11.9275 23.7364 11.8152 24.124C11.668 24.624 11.5518 25.0736 11.5324 25.4069C11.5247 25.5891 11.5556 25.7248 11.6409 25.8914C12.1522 26.9185 13.779 28.1782 14.9837 28.2673C15.5608 28.31 15.9017 28.1046 16.719 27.4689C17.8888 26.5465 18.799 25.1007 18.3807 23.9612ZM14.8248 27.31C14.178 27.4457 13.0895 26.6589 12.6751 26.2248C12.4465 25.9844 12.1134 25.624 12.1173 25.2674C12.1173 24.9728 12.5937 24.5039 12.7835 24.3101C13.136 23.9457 13.504 23.6008 13.903 23.2868L15.0108 25.0542C15.0495 25.5348 15.2587 27.2209 14.8248 27.31ZM16.3936 26.7984C16.3355 26.8449 16.258 26.8759 16.1767 26.8759C16.0024 26.8759 15.8552 26.7441 15.8319 26.5736C15.77 26.1511 15.7467 25.6627 15.7119 25.3023C15.6073 24.0504 15.5918 22.7907 15.5104 21.5388C15.4988 21.345 15.4872 21.128 15.5143 20.9342C15.5724 20.5427 15.8513 20.3915 16.1806 20.2753C16.3432 20.5349 16.4556 20.8799 16.5602 21.1512L17.6912 24.0504C18.0669 25.0155 17.1605 26.1666 16.3936 26.7984Z" fill="#707173"/>
<path d="M23.9595 19.472L21.0544 17.8868C20.6748 17.6814 20.2138 17.3713 19.7839 17.2899C19.7142 17.2744 19.6367 17.2705 19.5592 17.2783C18.7884 17.3403 17.7619 18.0108 17.4094 18.786C17.2042 19.2434 17.3397 19.4798 17.483 19.879C17.7387 20.5883 18.1222 21.6348 18.525 22.6464C18.6877 23.0572 18.8697 23.4487 19.0324 23.8169C19.2416 24.2937 19.4391 24.7161 19.6406 24.9836C19.7529 25.1308 19.8614 25.2084 20.0357 25.282C21.0854 25.7394 23.1422 25.658 24.1222 24.9526C24.5909 24.6153 24.7187 24.2394 24.9395 23.2239C25.2416 21.7666 25.0092 20.0728 23.9595 19.472ZM23.3862 24.3247C22.9756 24.844 21.6393 24.9409 21.0428 24.875C20.7135 24.8402 20.2255 24.7743 20.0008 24.5029C19.811 24.2743 19.8768 23.6115 19.8962 23.3402C19.9311 22.8324 19.993 22.3324 20.0976 21.8363L22.0847 22.4797C22.4178 22.8169 23.6612 23.9758 23.3862 24.3247ZM24.2577 22.9216C24.2422 22.9952 24.2035 23.065 24.1415 23.1193C24.006 23.2317 23.8123 23.2239 23.6845 23.1076C23.3668 22.8247 23.0337 22.4681 22.7781 22.2084C21.8949 21.317 21.0737 20.3635 20.2061 19.4527C20.0705 19.3131 19.9233 19.1542 19.8226 18.9876C19.6173 18.6504 19.7335 18.3519 19.9117 18.0535C20.2061 18.1465 20.5082 18.3403 20.7639 18.4798L23.4908 19.972C24.3972 20.4798 24.4398 21.9449 24.2577 22.9216Z" fill="#707173"/>
<path d="M28.5105 14.6897C27.8133 13.3758 26.5467 12.2285 25.3536 12.4417L22.1116 13.0928C21.6893 13.1781 21.1354 13.2362 20.752 13.4533C20.69 13.4882 20.628 13.5308 20.5699 13.5889C20.0199 14.1316 19.6596 15.306 19.8921 16.1276C20.0276 16.6083 20.2833 16.7052 20.6513 16.9183C21.302 17.2982 22.2704 17.8524 23.2271 18.3718C23.6145 18.5811 24.0057 18.7633 24.3698 18.9415C24.8385 19.1741 25.2568 19.3679 25.5822 19.4415C25.7604 19.4803 25.8959 19.4725 26.078 19.4183C27.178 19.0927 28.7003 17.709 28.9947 16.5385C29.138 15.9765 28.9947 15.6044 28.5105 14.6897ZM22.4718 14.8447C22.2781 14.8215 22.0612 14.7982 21.8791 14.7362C21.5073 14.6083 21.4027 14.3099 21.3485 13.9649C21.6351 13.8486 21.9915 13.8021 22.2742 13.744L25.3227 13.1316C26.3414 12.93 27.3136 14.0269 27.8017 14.8951C27.8365 14.961 27.852 15.0385 27.8404 15.1199C27.8094 15.2943 27.6545 15.4145 27.484 15.4067C27.058 15.3951 26.5738 15.3331 26.2136 15.3021C24.9585 15.1858 23.719 14.9804 22.4718 14.8447ZM26.5893 18.4609C26.3143 18.647 25.8998 18.9105 25.5512 18.8446C25.2607 18.7904 24.885 18.2439 24.7261 18.023C24.4279 17.6121 24.1529 17.1896 23.9127 16.74L25.8456 15.9532C26.322 15.9959 28.0186 16.0811 28.0341 16.5269C28.0534 17.1896 27.089 18.1237 26.5893 18.4609Z" fill="#707173"/>
<path d="M27.3235 6.95767C27.0717 6.4383 26.7231 6.2445 25.7625 5.85304C24.3835 5.29491 22.6792 5.22902 21.9006 6.15923L19.8361 8.74833C19.5649 9.08553 19.1815 9.48862 19.0265 9.89947C18.9994 9.96536 18.9839 10.039 18.9762 10.1204C18.9026 10.8917 19.3829 12.0196 20.0879 12.5002C20.5023 12.7831 20.758 12.6901 21.1763 12.6165C21.9161 12.4886 23.0162 12.2909 24.0814 12.07C24.5152 11.9808 24.9297 11.8684 25.3209 11.7715C25.8283 11.6475 26.2777 11.5273 26.572 11.3762C26.7347 11.2909 26.8316 11.1979 26.9362 11.039C27.5714 10.0855 27.8503 8.04679 27.3235 6.95767ZM20.7115 10.1553C20.3435 10.2987 20.0724 10.1359 19.809 9.90722C19.9523 9.6359 20.1963 9.36847 20.3745 9.14367L22.319 6.71348C22.9697 5.9073 24.4184 6.1166 25.3519 6.4693C25.4216 6.49644 25.4836 6.54682 25.5262 6.61659C25.6153 6.76775 25.5727 6.96154 25.4371 7.06619C25.104 7.32975 24.6934 7.59719 24.3952 7.80649C23.3648 8.52353 22.2841 9.16692 21.2383 9.86071C21.0756 9.96536 20.8897 10.0855 20.7115 10.1553ZM26.7154 9.97698C26.6224 10.2948 26.4752 10.7638 26.1653 10.9382C25.9097 11.0855 25.2667 10.9072 25.0033 10.8413C24.5114 10.7173 24.0272 10.57 23.5585 10.384L24.5346 8.53903C24.9258 8.26384 26.2815 7.23673 26.5798 7.57006C27.0175 8.06229 26.8819 9.39948 26.7154 9.97698Z" fill="#C1303D"/>
<path d="M22.2142 4.06945C22.0864 2.92993 20.9863 1.18966 19.8863 0.693545C19.3595 0.457116 18.9683 0.530758 17.9805 0.852457C16.5667 1.31369 15.2188 2.36018 15.2188 3.57333L15.3001 6.88334C15.3117 7.31357 15.273 7.86782 15.4202 8.28641C15.4434 8.35618 15.4783 8.42207 15.5209 8.48796C15.9586 9.12361 17.0548 9.68173 17.8992 9.59646C18.395 9.54608 18.5344 9.31353 18.8095 8.98795C19.2936 8.41044 20.0102 7.55387 20.6842 6.70118C20.9592 6.35622 21.2071 5.99964 21.4434 5.67794C21.7533 5.25547 22.0167 4.87563 22.1484 4.56944C22.222 4.39114 22.2336 4.25549 22.2142 4.06945ZM18.5073 1.98809C18.4221 2.40669 18.2788 2.8718 18.1858 3.2245C17.8566 4.43765 17.4421 5.62368 17.0858 6.82908C17.0315 7.01512 16.9696 7.22442 16.8766 7.39496C16.6868 7.73991 16.373 7.7903 16.0244 7.78642C15.9586 7.4841 15.9741 7.12365 15.9663 6.83683L15.8966 3.72449C15.8772 2.68575 17.1245 1.91833 18.0619 1.585C18.1355 1.56174 18.2129 1.55787 18.2904 1.58888C18.4531 1.64701 18.5422 1.82143 18.5073 1.98809ZM21.5557 4.48804C21.455 4.76323 20.8469 5.04229 20.6029 5.15857C20.1458 5.3795 19.681 5.58104 19.2007 5.73608L18.763 3.69348C18.8869 3.22838 19.2665 1.57337 19.7081 1.63539C20.3627 1.73228 21.1142 2.84079 21.3582 3.39116C21.4938 3.70124 21.6797 4.15471 21.5557 4.48804Z" fill="#E67139"/>
<path d="M14.6699 7.71655C14.6699 6.96463 14.6661 5.84837 14.639 4.75925C14.6273 4.31739 14.5886 3.88717 14.5615 3.48408C14.5266 2.96471 14.4879 2.4996 14.3872 2.18178C14.333 2.00736 14.2555 1.89496 14.1199 1.76318C13.2871 0.972502 11.331 0.344608 10.169 0.674059C9.6112 0.83297 9.3633 1.13917 8.81327 2.01899C8.02695 3.27866 7.66672 4.94916 8.44529 5.8755L10.6338 8.35995C10.9204 8.68552 11.2458 9.13125 11.6254 9.35605C11.6874 9.39481 11.7571 9.42582 11.8346 9.4452C12.5783 9.65062 13.7752 9.37543 14.3678 8.76304C14.7164 8.40646 14.6699 8.13902 14.6699 7.71655ZM11.7648 8.5925C11.5208 8.40258 11.3 8.11964 11.1102 7.89872L9.05729 5.56156C8.37556 4.77863 8.83651 3.38718 9.34006 2.53061C9.37879 2.46472 9.44077 2.41433 9.51824 2.3872C9.6848 2.32519 9.86685 2.40271 9.94432 2.55387C10.1457 2.92983 10.3355 3.37943 10.4905 3.70888C11.0173 4.84839 11.4588 6.02666 11.9663 7.1778C12.0437 7.35609 12.129 7.55764 12.1677 7.74756C12.2452 8.13515 12.036 8.37545 11.7648 8.5925ZM13.5892 3.63524C13.384 4.10035 13.1554 4.54995 12.8882 4.98017L11.2419 3.69725C11.0405 3.26315 10.2658 1.74768 10.6454 1.51513C11.2071 1.1663 12.4969 1.53451 13.0392 1.79807C13.3375 1.94535 13.7713 2.17015 13.8914 2.50735C13.9882 2.78254 13.7016 3.38331 13.5892 3.63524Z" fill="#F4B12C"/>
<path d="M10.6816 9.40988C10.1975 8.83237 9.48086 7.97968 8.75653 7.16574C8.46602 6.83629 8.16001 6.53009 7.88112 6.2394C7.52089 5.86344 7.19165 5.53399 6.91276 5.35182C6.75782 5.25105 6.62612 5.21617 6.44019 5.20454C5.29365 5.13477 3.39178 5.91383 2.71392 6.91381C2.38855 7.39442 2.3963 7.78976 2.53961 8.81687C2.74491 10.2897 3.54284 11.8013 4.73587 12.0106L8.00895 12.5067C8.43503 12.5726 8.97344 12.7044 9.40727 12.6346C9.47699 12.623 9.55059 12.6036 9.62418 12.5687C10.3292 12.247 11.0651 11.2664 11.1271 10.4137C11.1619 9.91375 10.9528 9.73546 10.6816 9.40988ZM3.61256 7.25101C3.82173 6.62312 5.04187 6.07274 5.62677 5.92933C5.94826 5.84794 6.42857 5.74329 6.73458 5.92158C6.99023 6.06886 7.15678 6.71614 7.23038 6.9797C7.36982 7.46806 7.48603 7.9603 7.55575 8.46029L5.47183 8.53781C5.038 8.33626 3.47312 7.67348 3.61256 7.25101ZM9.01992 11.9525C8.71392 11.9641 8.36143 11.8866 8.0748 11.8439L4.99926 11.375C3.97667 11.216 3.43438 9.85173 3.2717 8.87113C3.26008 8.79749 3.2717 8.7161 3.31431 8.64633C3.4034 8.49517 3.58932 8.43316 3.74813 8.49905C4.1471 8.65796 4.58093 8.87888 4.9063 9.03392C6.04123 9.56879 7.13742 10.1851 8.2646 10.7432C8.4389 10.8285 8.63257 10.9292 8.78751 11.0494C9.09352 11.2897 9.08577 11.6075 9.01992 11.9525Z" fill="#707173"/>
<path d="M9.69836 13.7589C9.40785 13.3519 9.13283 13.3519 8.7145 13.2744C7.97467 13.1426 6.8746 12.9527 5.79778 12.7899C5.36008 12.724 4.93013 12.6892 4.53116 12.6426C4.01211 12.5845 3.55117 12.5458 3.21805 12.5884C3.036 12.6116 2.91205 12.6659 2.76098 12.7783C1.8391 13.4605 0.882354 15.2821 1.00243 16.4837C1.06053 17.0612 1.32006 17.3596 2.09088 18.0534C3.19481 19.0495 4.77519 19.6929 5.8249 19.0844L8.64865 17.3596C9.01663 17.1348 9.51631 16.8906 9.80294 16.5573C9.84943 16.503 9.89203 16.441 9.9269 16.3674C10.2639 15.6775 10.198 14.4488 9.69836 13.7589ZM1.9127 16.1658C1.66867 15.5534 2.25356 14.3442 2.60605 13.8597C2.80359 13.5922 3.10185 13.2047 3.45046 13.1426C3.74097 13.0923 4.28326 13.4798 4.50792 13.6349C4.93013 13.9178 5.33297 14.224 5.70869 14.5612L4.15931 15.9604C3.70224 16.0806 2.07925 16.5806 1.9127 16.1658ZM8.28067 16.8131L5.62348 18.4294C4.73645 18.9642 3.44659 18.2704 2.69126 17.6232C2.63316 17.5728 2.59443 17.503 2.57893 17.4255C2.54794 17.2511 2.65253 17.0844 2.81521 17.034C3.22193 16.8984 3.69449 16.7899 4.04698 16.6968C5.25937 16.3751 6.495 16.1426 7.71515 15.848C7.90495 15.8015 8.11799 15.7511 8.31166 15.7472C8.70675 15.7395 8.9043 15.9875 9.07473 16.2899C8.85007 16.4953 8.52857 16.6619 8.28067 16.8131Z" fill="#707173"/>
<path d="M12.6154 19.0923C12.4217 18.3442 11.585 17.445 10.7561 17.2357C10.2719 17.1117 10.0628 17.2861 9.6948 17.4993C9.04406 17.8752 8.07956 18.4372 7.14993 19.007C6.77421 19.2395 6.42172 19.4876 6.08473 19.7085C5.6509 19.9992 5.2713 20.2667 5.04277 20.5108C4.91882 20.6465 4.85684 20.7705 4.81423 20.9527C4.54309 22.0689 4.98079 24.0805 5.84845 24.9216C6.26291 25.3247 6.65413 25.3867 7.69222 25.4255C9.17963 25.4759 10.8026 24.9565 11.2171 23.817L12.2745 20.6775C12.414 20.2705 12.6348 19.7589 12.6425 19.3209C12.6425 19.2473 12.6348 19.1698 12.6154 19.0923ZM6.34038 24.0883C5.75936 23.7743 5.43011 22.472 5.39138 21.8713C5.36814 21.538 5.34877 21.0496 5.5773 20.7783C5.7671 20.5535 6.43334 20.5031 6.70448 20.4721C7.20803 20.4178 7.71546 20.3907 8.21901 20.4062L7.93237 22.4759C7.65736 22.8751 6.7316 24.3015 6.34038 24.0883ZM11.6354 20.4876L10.6399 23.4371C10.3029 24.4177 8.86975 24.7162 7.87427 24.7046C7.7968 24.7046 7.7232 24.6774 7.66123 24.6232C7.52566 24.5108 7.49854 24.317 7.59151 24.1697C7.81617 23.8053 8.11055 23.4178 8.31584 23.1193C9.03631 22.0922 9.83812 21.1194 10.5818 20.1077C10.698 19.9527 10.8297 19.7744 10.973 19.6465C11.2674 19.3868 11.5812 19.4488 11.9065 19.5729C11.8639 19.8829 11.7284 20.2163 11.6354 20.4876Z" fill="#707173"/>
<path d="M100.761 14.1353C99.9283 13.4758 98.7835 13.3717 97.7428 13.3717C97.7081 13.3717 97.6734 13.3717 97.6387 13.3717C93.9962 13.4064 92.8861 15.4544 92.8861 18.8909C92.8861 22.3621 94.0656 24.4101 97.6387 24.5142C97.7428 24.5142 97.8122 24.5142 97.9162 24.5142C99.0263 24.5142 100.379 24.2712 101.455 23.9241L101.593 23.8894L101.142 21.9455L100.969 22.015C100.171 22.2927 98.9916 22.5009 98.1244 22.5009C97.9509 22.5009 97.8122 22.5009 97.6387 22.5009C97.0837 22.4662 96.4939 22.3621 96.0777 22.0497C95.3839 21.4943 95.2798 20.3835 95.2451 19.5851V19.5504H97.604H102.183V19.3769C102.287 17.7107 102.218 15.2461 100.761 14.1353ZM97.6387 17.6412H95.3145V17.6065C95.4879 15.9404 96.043 15.385 97.6387 15.3503C97.7081 15.3503 97.7428 15.3503 97.8122 15.3503C98.2978 15.3503 98.9223 15.385 99.3385 15.6974C99.8589 16.1139 99.963 17.0164 99.9977 17.6412V17.676H97.6387V17.6412ZM83.2422 23.6811V17.5371C83.2422 14.3436 81.8199 13.4064 78.8713 13.3717H78.7325C77.4837 13.3717 76.1654 13.5452 74.9513 13.8924L74.7778 13.9271L75.2635 15.9404L75.4369 15.8709C76.3389 15.5238 77.449 15.385 78.3856 15.385C78.5244 15.385 78.6978 15.385 78.8366 15.385C80.3629 15.4197 80.9874 15.7668 81.0221 17.6065V17.6412H80.9874C80.2589 17.5024 79.5651 17.3983 78.8366 17.3983C78.6978 17.3983 78.5937 17.3983 78.455 17.3983C75.8532 17.3983 74.2575 18.0578 74.2575 20.9389C74.2575 21.8414 74.3615 22.8828 75.0206 23.5423C75.8879 24.4448 77.4837 24.5489 78.6631 24.5489C78.7325 24.5489 78.7672 24.5489 78.8366 24.5489C80.1895 24.5142 81.8893 24.2365 83.1035 23.7159L83.2422 23.6811ZM81.0568 22.2927C80.3629 22.5356 79.5998 22.6398 78.8713 22.6398H78.8366C78.3509 22.6398 77.4143 22.6398 77.0674 22.2927C76.7205 21.9803 76.7205 21.286 76.7205 20.8348C76.7205 20.4529 76.7551 19.8628 77.0674 19.5851C77.449 19.238 78.3856 19.238 78.8713 19.238H78.906C79.5998 19.238 80.3629 19.2727 81.0568 19.4116H81.0914V22.2927H81.0568ZM92.123 24.0977L92.2617 24.0283L91.8107 22.1191L91.6373 22.1885C91.0822 22.3968 90.4578 22.4662 89.8681 22.4662C88.5152 22.4662 88.307 21.7373 88.307 20.5223V15.7321H91.9148V13.6841H88.307V10.8724L86.0522 11.8096V13.6841H84.2829V15.7321H86.0522V20.6612C86.0522 21.772 86.1562 23.1952 87.0929 23.9241C87.752 24.4795 88.758 24.5489 89.5559 24.5489C90.3537 24.5489 91.3598 24.4101 92.123 24.0977ZM45.9849 11.1154C44.8748 10.1782 43.3831 9.90047 41.9608 9.83105C41.6833 9.83105 41.4404 9.79633 41.1629 9.79633H36.1328V24.2365H41.1629C41.4404 24.2365 41.6833 24.2365 41.9608 24.2018C43.3831 24.1324 44.8748 23.8547 45.9849 22.9175C47.65 21.4943 47.9275 18.995 47.9275 16.947C47.8928 14.9684 47.65 12.5039 45.9849 11.1154ZM44.2157 21.3901C43.6259 21.8761 42.7933 22.0844 41.9608 22.1191C41.6486 22.1538 41.3364 22.1538 41.0588 22.1538H38.5611V11.9485H41.0588C41.3364 11.9485 41.6486 11.9485 41.9608 11.9832C42.7933 12.0179 43.6606 12.1915 44.2503 12.6427C45.3604 13.5452 45.3951 15.6974 45.3951 17.0164C45.3951 18.3702 45.3257 20.4529 44.2157 21.3901ZM72.7311 22.2232C72.176 22.4315 71.5516 22.5009 70.9619 22.5009C69.609 22.5009 69.4008 21.772 69.4008 20.5571V15.7321H73.0086V13.6841H69.4008V10.8724L67.1459 11.8096V13.6841H65.3767V15.7321H67.1459V20.6612C67.1459 21.772 67.25 23.1952 68.1866 23.9241C68.8458 24.4795 69.8171 24.5489 70.6497 24.5489C71.4475 24.5489 72.4882 24.4101 73.2514 24.0977L73.3902 24.0283L72.9392 22.1191L72.7311 22.2232ZM59.8957 15.7668C59.0284 15.6974 57.3286 15.5238 56.8776 14.656C56.7388 14.413 56.7042 14.1006 56.7042 13.8229C56.7042 13.3717 56.8082 12.8857 57.0858 12.5386C57.7449 11.7749 59.2019 11.7055 60.1732 11.7055C60.5201 11.7055 60.867 11.7055 61.2139 11.7402C61.9771 11.8096 62.9831 11.9138 63.7116 12.1915L63.885 12.2609L64.4748 10.1087L64.3013 10.074C63.0525 9.6922 61.4914 9.48393 60.1732 9.48393C57.0164 9.48393 54.1718 10.317 54.1718 14.0312C54.1718 17.1553 56.4266 17.7801 59.0631 17.9884C60.0691 18.0925 61.6996 18.3008 62.1505 19.3769C62.2546 19.6198 62.2893 19.8975 62.2893 20.1752C62.2893 20.6265 62.1852 21.0777 61.9077 21.4596C61.2486 22.2579 59.6875 22.3274 58.7509 22.3274C57.6408 22.3274 56.2185 22.1885 55.1431 21.8414L54.9696 21.772L54.3799 23.8894L54.5534 23.9588C55.8369 24.3754 57.4673 24.5837 58.8203 24.5837C61.9077 24.5837 64.8564 23.8547 64.8564 20.1405C64.8217 16.947 62.6709 16.0445 59.8957 15.7668ZM49.7661 24.2712H52.021V13.6841H49.7661V24.2712ZM50.113 11.6361C50.2865 11.7749 50.5293 11.8096 50.8762 11.8096C51.2231 11.8096 51.4659 11.7749 51.6047 11.6361C51.7781 11.4972 51.9169 11.2542 52.0557 10.7683C52.1944 10.1782 52.2291 9.76162 52.0557 9.48393C51.8475 9.17152 51.4659 9.06738 50.8762 9.06738C50.2865 9.06738 49.9049 9.13681 49.6967 9.44921C49.5233 9.72691 49.5233 10.1435 49.6967 10.7336C49.8008 11.2542 49.9396 11.4972 50.113 11.6361Z" fill="#707173"/>
<path d="M105.53 22.1216C105.53 21.7889 105.617 21.5337 105.79 21.356C105.963 21.1782 106.214 21.0894 106.542 21.0894C106.875 21.0894 107.128 21.1828 107.301 21.3696C107.474 21.5519 107.561 21.8026 107.561 22.1216C107.561 22.4451 107.472 22.7026 107.294 22.894C107.121 23.0809 106.87 23.1743 106.542 23.1743C106.214 23.1743 105.963 23.0809 105.79 22.894C105.617 22.7072 105.53 22.4497 105.53 22.1216ZM105.53 16.2837C105.53 15.5955 105.868 15.2515 106.542 15.2515C106.884 15.2515 107.139 15.3426 107.308 15.5249C107.476 15.7072 107.561 15.9601 107.561 16.2837C107.561 16.6073 107.472 16.8647 107.294 17.0562C107.121 17.243 106.87 17.3364 106.542 17.3364C106.214 17.3364 105.963 17.243 105.79 17.0562C105.617 16.8693 105.53 16.6118 105.53 16.2837Z" fill="#707173"/>
</svg>
