<svg width="21" height="21" viewBox="0 0 21 21" fill="none" xmlns="http://www.w3.org/2000/svg">
<path fill-rule="evenodd" clip-rule="evenodd" d="M20.5939 10.2099V10.0994V9.9893C16.1658 9.8553 14.1409 9.74484 12.5259 8.16741C10.9489 6.55272 10.838 4.52787 10.7044 0.0996094H10.5938H10.4833C10.3497 4.52787 10.2388 6.55272 8.66175 8.16741C7.04673 9.74484 5.02179 9.8553 0.59375 9.9893V10.0994V10.2099C5.02179 10.3439 7.04673 10.4544 8.66175 12.0314C10.2388 13.6465 10.3497 15.6714 10.4833 20.0996H10.5938H10.7044C10.838 15.6714 10.9489 13.6465 12.5259 12.0314C14.1409 10.4544 16.1658 10.3439 20.5939 10.2099Z" fill="white"/>
</svg>
