<svg width="30" height="29" viewBox="0 0 30 29" fill="none" xmlns="http://www.w3.org/2000/svg">
<path d="M29.6312 17.4673C29.6312 16.7341 29.3396 16.0508 28.8369 15.5469C29.4067 14.9235 29.6971 14.0877 29.6178 13.2178C29.475 11.6671 28.078 10.4519 26.4358 10.4519H18.8995C19.2728 9.31844 19.8707 7.2407 19.8707 5.57165C19.8707 2.92533 17.6221 0.691406 16.2105 0.691406C14.944 0.691406 14.0375 1.40515 13.9997 1.43443C13.8545 1.55035 13.7703 1.72604 13.7703 1.91145V6.04868L10.2553 13.6607L10.1101 13.7351V13.502C10.1101 13.1653 9.83679 12.892 9.50005 12.892H3.39976C1.71732 12.8921 0.349609 14.2598 0.349609 15.9422V25.7027C0.349609 27.3852 1.71732 28.7529 3.39976 28.7529H7.05996C8.37883 28.7529 9.50617 27.911 9.93075 26.7361C10.9459 27.2583 12.3123 27.5328 13.1603 27.5328H24.3593C25.688 27.5328 26.8507 26.6373 27.124 25.4026C27.2643 24.7657 27.1825 24.1252 26.9044 23.5689C27.8048 23.1162 28.4112 22.1853 28.4112 21.1275C28.4112 20.6956 28.3123 20.282 28.1257 19.9087C29.0261 19.4548 29.6312 18.5251 29.6312 17.4673ZM27.0581 18.9728C26.8226 19.0009 26.6237 19.1607 26.5481 19.3864C26.4737 19.6122 26.5359 19.8598 26.7092 20.0233C27.0191 20.3149 27.1911 20.7078 27.1911 21.1275C27.1911 21.8973 26.6091 22.544 25.8393 22.633C25.6038 22.6611 25.4049 22.8209 25.3293 23.0466C25.2549 23.2724 25.3171 23.52 25.4904 23.6835C25.8918 24.0617 26.0528 24.5925 25.9321 25.1391C25.782 25.8199 25.1207 26.3128 24.3594 26.3128H13.1603C12.1696 26.3128 10.5079 25.848 9.93201 25.2708C9.75752 25.0976 9.49399 25.0464 9.26706 25.1391C9.03892 25.233 8.89005 25.4563 8.89005 25.7027C8.89005 26.7118 8.06897 27.5328 7.05996 27.5328H3.39976C2.39074 27.5328 1.56966 26.7118 1.56966 25.7027V15.9422C1.56966 14.9332 2.39074 14.1121 3.39976 14.1121H8.89005V14.7222C8.89005 14.9332 8.99986 15.1296 9.18041 15.2419C9.35856 15.3492 9.58303 15.3602 9.77336 15.2675L10.9934 14.6575C11.1167 14.5964 11.2155 14.494 11.274 14.3683L14.9342 6.43786C14.9708 6.35734 14.9903 6.26949 14.9903 6.18165V2.24207C15.2442 2.10178 15.6846 1.91145 16.2105 1.91145C16.8791 1.91145 18.6506 3.57318 18.6506 5.57165C18.6506 7.71899 17.4818 10.8143 17.4708 10.8448C17.4001 11.0315 17.4244 11.2426 17.5379 11.4085C17.6526 11.5732 17.8405 11.672 18.0406 11.672H26.4358C27.4534 11.672 28.3172 12.4004 28.4026 13.3301C28.4673 14.0255 28.1329 14.6868 27.5339 15.0565C27.3472 15.1712 27.2362 15.3786 27.2448 15.5994C27.2533 15.8202 27.3802 16.0179 27.5754 16.1191C28.0915 16.3815 28.4111 16.8988 28.4111 17.4673C28.4112 18.2371 27.8292 18.8838 27.0581 18.9728Z" fill="#0B1E73"/>
<path d="M9.50068 14.1133C9.16394 14.1133 8.89062 14.3866 8.89062 14.7233V25.7039C8.89062 26.0407 9.16394 26.314 9.50068 26.314C9.83742 26.314 10.1107 26.0407 10.1107 25.7039V14.7233C10.1107 14.3866 9.83742 14.1133 9.50068 14.1133Z" fill="#0B1E73"/>
</svg>
